<svg xmlns="http://www.w3.org/2000/svg" xmlns:xlink="http://www.w3.org/1999/xlink" width="292" zoomAndPan="magnify" viewBox="0 0 218.87999 40.499999" height="54" preserveAspectRatio="xMidYMid meet" version="1.0"><defs><clipPath id="f0c659172e"><path d="M 5.582031 1 L 216 1 L 216 37.632812 L 5.582031 37.632812 Z M 5.582031 1 " clip-rule="nonzero"/></clipPath><clipPath id="97b7ee48e4"><path d="M 211.621094 3.1875 L 215.324219 3.1875 L 215.324219 6.894531 L 211.621094 6.894531 Z M 211.621094 3.1875 " clip-rule="nonzero"/></clipPath><clipPath id="d0c2c766c5"><path d="M 213.472656 3.1875 C 213.964844 3.1875 214.433594 3.382812 214.78125 3.730469 C 215.128906 4.078125 215.324219 4.550781 215.324219 5.042969 C 215.324219 5.53125 215.128906 6.003906 214.78125 6.351562 C 214.433594 6.699219 213.964844 6.894531 213.472656 6.894531 C 212.980469 6.894531 212.507812 6.699219 212.164062 6.351562 C 211.816406 6.003906 211.621094 5.53125 211.621094 5.042969 C 211.621094 4.550781 211.816406 4.078125 212.164062 3.730469 C 212.507812 3.382812 212.980469 3.1875 213.472656 3.1875 Z M 213.472656 3.1875 " clip-rule="nonzero"/></clipPath></defs><g clip-path="url(#f0c659172e)"><path fill="#1777dc" d="M 188.839844 1.230469 C 188.171875 1.566406 188.191406 1.117188 188.1875 15.125 C 188.1875 27.914062 188.195312 28.226562 188.441406 28.539062 C 188.671875 28.832031 188.804688 28.867188 190.050781 28.9375 C 190.804688 28.980469 191.609375 28.957031 191.863281 28.886719 C 192.710938 28.652344 192.699219 28.75 192.621094 23.550781 C 192.546875 18.585938 192.617188 17.605469 193.121094 16.535156 C 193.53125 15.664062 194.210938 14.96875 195.074219 14.535156 C 195.75 14.199219 196.011719 14.140625 196.859375 14.140625 C 198.773438 14.140625 199.945312 14.757812 200.613281 16.125 C 200.828125 16.566406 201.0625 17.238281 201.132812 17.621094 C 201.207031 18.011719 201.265625 20.519531 201.265625 23.328125 C 201.265625 27.332031 201.300781 28.378906 201.441406 28.570312 C 201.632812 28.835938 202.511719 29.003906 203.804688 29.019531 C 205.011719 29.035156 205.398438 28.917969 205.6875 28.460938 C 205.925781 28.078125 205.9375 27.835938 205.886719 23.074219 C 205.839844 18.457031 205.816406 18.011719 205.554688 17.050781 C 205.007812 15.035156 203.6875 12.730469 202.535156 11.789062 C 201.128906 10.636719 199.328125 9.996094 197.496094 9.996094 C 196.078125 9.996094 195.289062 10.1875 193.976562 10.847656 C 193.347656 11.164062 192.808594 11.421875 192.777344 11.421875 C 192.746094 11.421875 192.71875 9.273438 192.71875 6.648438 C 192.71875 1.269531 192.746094 1.421875 191.746094 1.191406 C 190.996094 1.015625 189.210938 1.042969 188.839844 1.230469 M 131.179688 2.625 C 128.078125 3.144531 125.382812 5.222656 123.878906 8.25 C 123.125 9.761719 122.800781 12.058594 123.066406 14.011719 C 123.257812 15.433594 123.964844 17.550781 124.65625 18.78125 C 125.335938 19.980469 126.953125 21.71875 128.097656 22.472656 C 129.039062 23.097656 130.460938 23.753906 131.363281 23.984375 C 132.136719 24.183594 137.59375 24.289062 139.097656 24.136719 C 140.40625 24 140.671875 23.855469 141.21875 22.964844 C 141.597656 22.351562 141.601562 21.007812 141.226562 20.289062 C 140.453125 18.8125 139.734375 18.542969 136.550781 18.542969 C 133.914062 18.542969 132.871094 18.394531 131.824219 17.871094 C 130.472656 17.191406 129.371094 15.726562 129.023438 14.132812 C 128.804688 13.144531 128.90625 11.488281 129.21875 10.839844 C 129.539062 10.179688 130.398438 9.316406 131.085938 8.964844 C 131.910156 8.542969 133.136719 8.453125 137.898438 8.449219 L 142.308594 8.441406 L 142.746094 8.765625 C 143.164062 9.074219 143.269531 9.09375 144.964844 9.09375 C 147.878906 9.09375 147.796875 9.183594 147.796875 5.925781 C 147.796875 3.621094 147.777344 3.402344 147.535156 3.097656 C 147.390625 2.914062 147.085938 2.710938 146.855469 2.636719 C 146.34375 2.484375 132.089844 2.46875 131.179688 2.625 M 212.140625 2.765625 C 210.335938 3.304688 209.761719 5.445312 211.015625 6.964844 C 212.035156 8.203125 213.941406 8.253906 214.976562 7.074219 C 215.515625 6.460938 215.632812 6.128906 215.632812 5.222656 C 215.632812 4.613281 215.566406 4.371094 215.253906 3.898438 C 214.597656 2.90625 213.269531 2.421875 212.140625 2.765625 M 6.578125 3.335938 C 6.421875 3.449219 6.195312 3.726562 6.078125 3.953125 C 5.878906 4.332031 5.871094 5.355469 5.945312 16.261719 C 6.035156 29.390625 5.980469 28.675781 6.847656 28.835938 C 7.082031 28.882812 9.601562 28.894531 12.449219 28.871094 C 17.359375 28.824219 17.65625 28.804688 18.367188 28.542969 C 21.707031 27.296875 23.425781 25.101562 23.601562 21.84375 C 23.683594 20.386719 23.496094 19.402344 22.925781 18.273438 C 22.539062 17.515625 21.136719 16.074219 20.546875 15.828125 C 20.082031 15.636719 20.027344 15.378906 20.410156 15.175781 C 20.882812 14.921875 21.816406 13.503906 22.085938 12.625 C 22.40625 11.589844 22.433594 9.671875 22.148438 8.453125 C 21.511719 5.769531 19.589844 3.90625 16.84375 3.332031 C 15.472656 3.042969 6.992188 3.046875 6.578125 3.335938 M 176.132812 5.164062 C 175.839844 5.242188 175.761719 5.847656 175.761719 8.136719 L 175.761719 10.097656 L 174.472656 10.148438 C 173.324219 10.195312 173.144531 10.234375 172.847656 10.511719 C 172.441406 10.898438 172.082031 12.066406 172.179688 12.683594 C 172.335938 13.632812 173.039062 14.011719 174.644531 14.011719 L 175.738281 14.011719 L 175.792969 19.027344 C 175.851562 24.21875 175.882812 24.488281 176.449219 25.792969 C 177.03125 27.128906 178.433594 28.332031 179.953125 28.792969 C 181.058594 29.132812 183.210938 29.199219 183.878906 28.917969 C 184.5625 28.628906 184.691406 28.292969 184.691406 26.824219 C 184.691406 25.597656 184.671875 25.503906 184.367188 25.21875 C 183.972656 24.851562 183.535156 24.757812 182.269531 24.757812 C 181.148438 24.757812 180.632812 24.523438 180.425781 23.933594 C 180.34375 23.699219 180.289062 21.71875 180.289062 18.78125 L 180.289062 14.011719 L 181.65625 14.011719 C 183.355469 14.011719 183.792969 13.851562 184.183594 13.085938 C 184.519531 12.429688 184.578125 11.351562 184.3125 10.851562 C 183.984375 10.242188 183.570312 10.082031 182.296875 10.0625 C 181.65625 10.050781 180.945312 10.03125 180.710938 10.019531 L 180.289062 9.996094 L 180.289062 7.617188 C 180.289062 5.5625 180.261719 5.222656 180.085938 5.15625 C 179.859375 5.070312 176.464844 5.078125 176.132812 5.164062 M 11.214844 7.519531 L 10.5 7.601562 L 10.464844 10.613281 L 10.429688 13.621094 L 12.988281 13.621094 C 14.410156 13.621094 15.769531 13.558594 16.046875 13.480469 C 16.324219 13.40625 16.800781 13.113281 17.109375 12.828125 C 18.730469 11.332031 18.222656 8.613281 16.148438 7.714844 C 15.632812 7.488281 12.507812 7.363281 11.214844 7.519531 M 50.890625 9.988281 C 48.027344 10.460938 45.875 12.425781 46.066406 14.402344 C 46.167969 15.464844 47.113281 16.191406 48.472656 16.25 C 49.074219 16.277344 49.132812 16.246094 49.996094 15.453125 C 51.191406 14.359375 51.699219 14.113281 52.910156 14.039062 C 55.792969 13.867188 57.808594 15.65625 58.21875 18.746094 C 58.496094 20.808594 57.929688 22.613281 56.640625 23.769531 C 54.730469 25.492188 51.554688 25.335938 50.195312 23.457031 C 49.609375 22.652344 49.367188 21.761719 49.285156 20.097656 C 49.210938 18.683594 49.195312 18.605469 48.886719 18.441406 C 48.6875 18.339844 48.253906 18.289062 47.765625 18.316406 C 46.675781 18.375 46.003906 18.824219 45.558594 19.796875 C 44.585938 21.917969 45.355469 24.96875 47.375 27.015625 C 48.894531 28.558594 50.414062 29.15625 52.835938 29.15625 C 55 29.15625 56.21875 28.789062 57.65625 27.714844 L 58.335938 27.207031 L 58.335938 27.605469 C 58.335938 28.152344 58.652344 28.722656 59.011719 28.816406 C 59.175781 28.859375 59.988281 28.894531 60.820312 28.898438 C 62.023438 28.898438 62.375 28.859375 62.535156 28.695312 C 62.71875 28.515625 62.738281 27.511719 62.738281 19.585938 C 62.738281 11.898438 62.710938 10.65625 62.546875 10.519531 C 62.191406 10.226562 61.386719 10.128906 59.984375 10.210938 C 58.382812 10.304688 58.363281 10.320312 58.242188 11.5 L 58.171875 12.199219 L 57.640625 11.765625 C 55.921875 10.363281 53.121094 9.621094 50.890625 9.988281 M 92.488281 10.054688 C 91.261719 10.3125 90.050781 10.929688 89.160156 11.753906 C 88.09375 12.742188 87.609375 14.070312 88.023438 14.867188 C 88.476562 15.734375 89.332031 16.210938 90.433594 16.210938 C 90.992188 16.210938 91.085938 16.160156 91.785156 15.453125 C 92.90625 14.320312 93.472656 14.074219 94.976562 14.078125 C 96.082031 14.078125 96.289062 14.117188 97.0625 14.480469 C 97.535156 14.707031 98.152344 15.097656 98.433594 15.355469 C 99.769531 16.558594 100.324219 18.851562 99.835938 21.152344 C 99.433594 23.0625 98.445312 24.074219 96.40625 24.675781 C 94.851562 25.136719 93.484375 24.835938 92.449219 23.800781 C 91.390625 22.742188 91.160156 21.71875 91.382812 19.003906 C 91.40625 18.695312 91.335938 18.578125 90.980469 18.371094 C 90.585938 18.136719 90.476562 18.128906 89.679688 18.273438 C 88.691406 18.449219 88.25 18.695312 87.78125 19.328125 C 87.125 20.21875 86.894531 21.921875 87.21875 23.488281 C 87.621094 25.429688 89.21875 27.511719 90.960938 28.359375 C 93.53125 29.617188 97.136719 29.371094 99.214844 27.800781 L 99.953125 27.242188 L 100.121094 27.910156 C 100.214844 28.277344 100.386719 28.648438 100.503906 28.738281 C 100.773438 28.9375 103.808594 28.960938 104.175781 28.765625 C 104.417969 28.636719 104.425781 28.398438 104.425781 19.703125 C 104.425781 10.945312 104.421875 10.769531 104.164062 10.515625 C 103.933594 10.28125 103.734375 10.257812 102.175781 10.257812 C 100.179688 10.257812 100.171875 10.261719 100.0625 11.347656 C 100.023438 11.746094 99.964844 12.070312 99.933594 12.070312 C 99.90625 12.070312 99.578125 11.839844 99.210938 11.5625 C 98.835938 11.28125 98.242188 10.910156 97.886719 10.734375 C 96.460938 10.03125 94.054688 9.730469 92.488281 10.054688 M 117.292969 10.0625 C 116.316406 10.273438 115.835938 10.507812 114.890625 11.242188 C 114.488281 11.554688 114.128906 11.808594 114.09375 11.808594 C 114.0625 11.808594 113.996094 11.554688 113.949219 11.238281 C 113.902344 10.921875 113.769531 10.589844 113.65625 10.496094 C 113.515625 10.375 112.925781 10.308594 111.816406 10.277344 C 110.277344 10.234375 110.167969 10.25 109.929688 10.511719 C 109.679688 10.789062 109.675781 10.996094 109.71875 19.554688 C 109.738281 24.375 109.808594 28.40625 109.871094 28.523438 C 110.085938 28.929688 110.703125 29.058594 112.179688 29.011719 C 114.3125 28.9375 114.113281 29.527344 114.160156 23.15625 C 114.203125 17.980469 114.210938 17.808594 114.496094 17.105469 C 114.984375 15.882812 115.664062 15.027344 116.457031 14.625 C 117.074219 14.3125 117.304688 14.269531 118.375 14.269531 C 119.539062 14.269531 119.609375 14.253906 119.957031 13.902344 C 120.363281 13.5 120.574219 12.898438 120.6875 11.808594 C 120.753906 11.195312 120.722656 11.046875 120.46875 10.726562 C 119.84375 9.9375 118.835938 9.726562 117.292969 10.0625 M 73.902344 10.199219 C 73.085938 10.417969 72.363281 10.777344 71.832031 11.222656 C 71.304688 11.664062 71.199219 11.640625 71.105469 11.039062 C 71.054688 10.722656 70.925781 10.472656 70.773438 10.390625 C 70.632812 10.316406 69.761719 10.257812 68.832031 10.257812 C 66.9375 10.257812 66.710938 10.347656 66.558594 11.1875 C 66.515625 11.421875 66.5 17.101562 66.519531 23.808594 L 66.558594 36 L 66.882812 36.351562 C 67.335938 36.839844 67.914062 37.054688 68.789062 37.054688 C 69.703125 37.054688 70.339844 36.746094 70.699219 36.132812 C 70.941406 35.726562 70.960938 35.425781 70.996094 31.875 C 71.015625 29.777344 71.058594 27.984375 71.089844 27.894531 C 71.128906 27.78125 71.339844 27.851562 71.792969 28.128906 C 72.929688 28.828125 73.785156 29.0625 75.464844 29.128906 C 77.359375 29.207031 78.269531 29.039062 79.695312 28.355469 C 80.578125 27.929688 80.996094 27.621094 81.835938 26.769531 C 83.074219 25.519531 83.800781 24.1875 84.246094 22.363281 C 84.644531 20.710938 84.652344 17.878906 84.253906 16.433594 C 83.808594 14.804688 83.03125 13.445312 81.90625 12.324219 C 80.246094 10.667969 78.503906 9.988281 75.957031 10.007812 C 75.203125 10.011719 74.277344 10.097656 73.902344 10.199219 M 156.304688 10.199219 C 155.132812 10.484375 154.1875 10.996094 153.300781 11.828125 C 152.417969 12.65625 152.050781 13.34375 152.035156 14.210938 C 152.027344 14.878906 152.21875 15.226562 152.867188 15.695312 C 153.945312 16.476562 154.734375 16.378906 156.078125 15.304688 C 157.398438 14.246094 157.835938 14.097656 159.410156 14.164062 C 160.386719 14.203125 160.816406 14.28125 161.28125 14.503906 C 163.132812 15.40625 164.164062 17.289062 164.160156 19.773438 C 164.160156 22.933594 162.292969 24.824219 159.1875 24.820312 C 157.886719 24.816406 157.035156 24.5 156.300781 23.746094 C 155.46875 22.894531 155.257812 22.207031 155.246094 20.355469 C 155.242188 19.464844 155.195312 18.667969 155.140625 18.582031 C 154.964844 18.3125 154.132812 18.117188 153.515625 18.203125 C 152.078125 18.402344 151.296875 19.53125 151.195312 21.558594 C 151.074219 23.871094 151.707031 25.609375 153.203125 27.074219 C 154.6875 28.527344 156.371094 29.15625 158.800781 29.15625 C 160.992188 29.15625 162.519531 28.65625 163.527344 27.617188 C 163.8125 27.324219 164.082031 27.085938 164.125 27.085938 C 164.171875 27.085938 164.246094 27.402344 164.296875 27.785156 C 164.417969 28.773438 164.554688 28.851562 166.277344 28.9375 C 167.746094 29.011719 168.46875 28.914062 168.660156 28.609375 C 168.714844 28.519531 168.765625 24.445312 168.765625 19.550781 L 168.769531 10.660156 L 168.480469 10.460938 C 168.257812 10.300781 167.828125 10.257812 166.550781 10.257812 C 164.699219 10.257812 164.507812 10.335938 164.480469 11.109375 C 164.464844 11.519531 164.421875 11.976562 164.382812 12.136719 C 164.375 12.171875 163.996094 11.910156 163.542969 11.558594 C 162.589844 10.808594 161.933594 10.5 160.648438 10.207031 C 159.515625 9.953125 157.347656 9.949219 156.304688 10.199219 M 212.417969 10.25 C 211.105469 10.328125 210.851562 10.472656 210.835938 11.15625 C 210.796875 12.691406 210.875 28.3125 210.925781 28.4375 C 211.050781 28.773438 211.660156 28.898438 213.121094 28.898438 C 214.53125 28.898438 214.625 28.882812 214.929688 28.582031 L 215.246094 28.261719 L 215.246094 19.707031 C 215.246094 12.308594 215.21875 11.097656 215.046875 10.769531 C 214.777344 10.242188 214.257812 10.140625 212.417969 10.25 M 25.316406 10.496094 C 25.121094 10.652344 25.023438 10.859375 25.023438 11.109375 C 25.023438 11.316406 25.5625 12.679688 26.226562 14.140625 C 28.535156 19.238281 31.308594 25.824219 31.699219 27.152344 C 31.9375 27.957031 31.769531 28.746094 31.066406 30.085938 C 30.265625 31.605469 29.089844 32.476562 27.347656 32.839844 C 26.898438 32.933594 26.410156 33.074219 26.265625 33.152344 C 25.785156 33.410156 25.007812 35.457031 25.199219 35.96875 C 25.34375 36.355469 25.914062 36.769531 26.523438 36.933594 C 27.175781 37.109375 28.105469 36.988281 29.257812 36.574219 C 31.703125 35.695312 33.214844 34.339844 34.765625 31.617188 C 35.414062 30.484375 37.132812 26.832031 38.785156 23.074219 C 38.988281 22.609375 39.777344 20.863281 40.542969 19.191406 C 41.820312 16.386719 42.890625 13.980469 43.65625 12.199219 C 43.988281 11.421875 44.054688 10.65625 43.8125 10.410156 C 43.59375 10.195312 40.390625 10.203125 39.953125 10.421875 C 39.597656 10.597656 39.003906 11.699219 38.128906 13.816406 L 36.847656 16.925781 C 36.003906 18.96875 35.371094 20.445312 34.839844 21.585938 L 34.480469 22.363281 L 33.996094 21.328125 C 33.515625 20.292969 32.253906 17.265625 30.523438 12.996094 C 30.023438 11.761719 29.515625 10.640625 29.390625 10.503906 C 29.191406 10.285156 28.976562 10.257812 27.390625 10.257812 C 25.855469 10.257812 25.570312 10.289062 25.316406 10.496094 M 131.285156 10.882812 C 130.671875 11.167969 130.445312 11.585938 130.351562 12.601562 C 130.261719 13.601562 130.5 14.488281 131.070312 15.246094 C 131.875 16.316406 132.128906 16.390625 135.433594 16.441406 C 138.496094 16.492188 138.90625 16.558594 140.320312 17.269531 C 141.320312 17.769531 142.039062 18.511719 142.53125 19.558594 C 142.910156 20.355469 142.941406 20.519531 142.941406 21.777344 C 142.9375 22.96875 142.898438 23.226562 142.605469 23.851562 C 142.171875 24.777344 141.695312 25.324219 140.953125 25.761719 C 140.371094 26.105469 140.28125 26.117188 137.890625 26.183594 C 135.535156 26.246094 131.316406 26.164062 127.589844 25.976562 C 125.027344 25.847656 124.539062 26.078125 124.222656 27.582031 C 124.050781 28.390625 124.226562 31.125 124.484375 31.597656 C 124.558594 31.738281 124.820312 31.976562 125.070312 32.132812 L 125.519531 32.410156 L 133.390625 32.363281 C 140.113281 32.320312 141.355469 32.28125 141.941406 32.105469 C 144.800781 31.242188 147.164062 29.089844 148.082031 26.503906 C 148.59375 25.074219 148.769531 23.933594 148.753906 22.101562 C 148.738281 20.0625 148.445312 18.761719 147.617188 17.050781 C 146.925781 15.621094 146.113281 14.53125 145.046875 13.597656 C 143.3125 12.078125 142.066406 11.390625 140.285156 10.960938 C 139.492188 10.769531 138.628906 10.71875 135.5625 10.683594 C 132.109375 10.640625 131.765625 10.65625 131.285156 10.882812 M 74.875 14.269531 C 73.445312 14.519531 72.234375 15.527344 71.515625 17.070312 C 71.1875 17.773438 71.105469 18.136719 71.054688 19.125 C 70.953125 21.070312 71.414062 22.441406 72.554688 23.582031 C 73.523438 24.546875 74.21875 24.824219 75.6875 24.8125 C 77.160156 24.808594 77.859375 24.53125 78.828125 23.5625 C 79.9375 22.460938 80.425781 20.972656 80.3125 19.039062 C 80.261719 18.140625 80.167969 17.742188 79.851562 17.066406 C 78.882812 15 76.945312 13.910156 74.875 14.269531 M 10.464844 21.152344 L 10.5 24.300781 L 13.585938 24.335938 C 15.5 24.359375 16.867188 24.320312 17.1875 24.234375 C 17.957031 24.023438 18.789062 23.140625 19.046875 22.25 C 19.390625 21.0625 19.035156 19.714844 18.191406 19.003906 C 17.136719 18.117188 17.011719 18.09375 13.574219 18.046875 L 10.429688 18.003906 Z M 125.722656 38.726562 L 125.074219 38.804688 L 125.074219 43.335938 L 126.035156 43.371094 C 127.726562 43.441406 128.417969 42.832031 126.886719 42.628906 C 126.417969 42.5625 126.371094 42.523438 126.371094 42.179688 C 126.371094 41.859375 126.425781 41.792969 126.757812 41.75 C 127.226562 41.691406 127.296875 41.625 127.414062 41.15625 L 127.503906 40.789062 L 126.90625 40.878906 L 126.304688 40.96875 L 126.304688 40.402344 C 126.308594 39.667969 126.390625 39.566406 127.042969 39.457031 C 127.425781 39.390625 127.613281 39.289062 127.671875 39.105469 C 127.714844 38.964844 127.730469 38.832031 127.707031 38.8125 C 127.59375 38.714844 126.296875 38.65625 125.722656 38.726562 M 92.070312 38.964844 C 92.128906 39.089844 92.214844 40.125 92.261719 41.261719 C 92.316406 42.402344 92.363281 43.347656 92.371094 43.367188 C 92.378906 43.382812 92.503906 43.398438 92.644531 43.398438 C 92.886719 43.398438 92.902344 43.3125 92.902344 41.902344 C 92.902344 40.980469 92.953125 40.417969 93.03125 40.445312 C 93.097656 40.46875 93.523438 41.128906 93.972656 41.910156 L 94.789062 43.335938 L 96.046875 43.335938 L 96.019531 41.269531 C 96.007812 40.132812 95.964844 39.15625 95.929688 39.101562 C 95.894531 39.042969 95.753906 39 95.617188 39 C 95.382812 39 95.363281 39.097656 95.363281 40.390625 C 95.359375 41.902344 95.28125 42.398438 95.054688 42.332031 C 94.824219 42.261719 94.09375 40.671875 94.003906 40.035156 C 93.953125 39.714844 93.886719 39.34375 93.851562 39.207031 C 93.730469 38.78125 93.574219 39.238281 93.648438 39.789062 C 93.683594 40.066406 93.675781 40.292969 93.625 40.292969 C 93.460938 40.292969 92.917969 39.582031 92.835938 39.257812 C 92.742188 38.894531 92.5625 38.742188 92.210938 38.738281 C 92.027344 38.738281 91.996094 38.792969 92.070312 38.964844 M 117.886719 38.785156 C 117.851562 38.816406 117.84375 39.84375 117.863281 41.066406 L 117.902344 43.285156 L 118.25 43.246094 L 118.601562 43.207031 L 118.601562 38.804688 L 118.273438 38.765625 C 118.09375 38.746094 117.917969 38.753906 117.886719 38.785156 M 129.785156 39.035156 C 129.21875 39.417969 128.949219 39.957031 129.128906 40.351562 C 129.199219 40.511719 129.527344 40.8125 129.851562 41.015625 C 130.179688 41.222656 130.445312 41.433594 130.445312 41.484375 C 130.445312 41.539062 130.210938 41.703125 129.921875 41.847656 C 129.632812 41.996094 129.367188 42.203125 129.324219 42.308594 C 129.117188 42.851562 130.722656 43.636719 131.671875 43.457031 C 132.222656 43.351562 132.90625 42.757812 132.90625 42.382812 C 132.90625 41.945312 132.390625 41.488281 131.160156 40.839844 C 129.933594 40.195312 129.738281 39.941406 130.132812 39.503906 C 130.5 39.101562 130.941406 39.199219 131.628906 39.839844 C 132.519531 40.671875 132.84375 40.558594 132.222656 39.632812 C 131.648438 38.769531 130.574219 38.503906 129.785156 39.035156 M 41.472656 39.050781 C 41.371094 39.148438 41.097656 39.921875 40.859375 40.765625 C 40.625 41.609375 40.386719 42.351562 40.332031 42.414062 C 40.238281 42.519531 40.109375 42.148438 39.472656 39.902344 C 39.273438 39.203125 39.183594 39.054688 38.929688 39.015625 C 38.664062 38.980469 38.632812 39.015625 38.707031 39.277344 C 38.753906 39.445312 38.972656 40.308594 39.195312 41.199219 C 39.636719 42.964844 39.828125 43.304688 40.335938 43.242188 C 40.75 43.195312 40.988281 42.730469 41.464844 41.035156 C 41.660156 40.339844 41.859375 39.84375 41.90625 39.933594 C 41.957031 40.023438 42.148438 40.679688 42.335938 41.394531 C 42.78125 43.070312 42.871094 43.269531 43.183594 43.269531 C 43.324219 43.269531 43.527344 43.140625 43.632812 42.980469 C 43.90625 42.558594 44.585938 40.414062 44.691406 39.648438 C 44.769531 39.050781 44.757812 39 44.507812 39 C 44.222656 39 44.21875 39.003906 43.90625 40.355469 C 43.539062 41.96875 43.414062 42.378906 43.320312 42.273438 C 43.195312 42.132812 42.414062 39.59375 42.414062 39.339844 C 42.414062 39.144531 42.046875 38.867188 41.78125 38.867188 C 41.710938 38.867188 41.570312 38.949219 41.472656 39.050781 M 114.707031 39.054688 C 113.980469 39.371094 113.515625 40.28125 113.847656 40.75 C 114.03125 41.019531 114.585938 41.328125 114.882812 41.328125 C 115.046875 41.328125 115.355469 41.417969 115.566406 41.527344 C 115.855469 41.675781 115.949219 41.8125 115.949219 42.101562 C 115.949219 42.621094 115.640625 42.882812 115.019531 42.882812 C 114.605469 42.882812 114.421875 42.800781 114.136719 42.492188 C 113.9375 42.28125 113.738281 42.105469 113.695312 42.105469 C 113.488281 42.105469 113.65625 42.671875 113.949219 42.96875 C 114.253906 43.273438 114.351562 43.292969 115.179688 43.246094 C 115.941406 43.203125 116.132812 43.144531 116.425781 42.851562 C 116.839844 42.4375 116.882812 41.816406 116.519531 41.453125 C 116.382812 41.316406 115.859375 41.070312 115.363281 40.90625 C 114.574219 40.652344 114.457031 40.574219 114.417969 40.277344 C 114.390625 40.027344 114.480469 39.855469 114.726562 39.660156 C 115.171875 39.3125 115.324219 39.316406 115.777344 39.6875 C 116.453125 40.246094 116.84375 40.222656 116.65625 39.632812 C 116.570312 39.367188 115.683594 38.871094 115.300781 38.875 C 115.195312 38.878906 114.925781 38.957031 114.707031 39.054688 M 120.140625 39.023438 C 120 39.25 119.90625 43.269531 120.042969 43.273438 C 120.101562 43.273438 120.285156 43.308594 120.445312 43.351562 C 120.71875 43.425781 120.738281 43.386719 120.738281 42.863281 C 120.742188 41.898438 120.902344 40.160156 120.988281 40.160156 C 121.035156 40.160156 121.152344 40.382812 121.242188 40.648438 C 121.335938 40.914062 121.636719 41.613281 121.917969 42.199219 C 122.433594 43.285156 122.679688 43.492188 123.285156 43.375 C 123.539062 43.328125 123.605469 42.878906 123.753906 40.132812 L 123.824219 38.867188 L 123.460938 38.867188 C 123.035156 38.867188 122.996094 38.96875 122.867188 40.519531 C 122.816406 41.105469 122.722656 41.585938 122.660156 41.585938 C 122.597656 41.585938 122.257812 40.972656 121.910156 40.226562 L 121.273438 38.867188 L 120.753906 38.867188 C 120.46875 38.867188 120.195312 38.9375 120.140625 39.023438 M 134.804688 39.253906 C 134.441406 39.6875 133.898438 41.023438 134.011719 41.207031 C 134.144531 41.414062 134.332031 41.335938 134.332031 41.078125 C 134.332031 40.667969 134.554688 40.644531 135.296875 40.984375 C 135.699219 41.167969 136.128906 41.28125 136.300781 41.242188 C 136.484375 41.199219 136.539062 41.21875 136.441406 41.285156 C 136.332031 41.363281 136.402344 41.449219 136.667969 41.570312 C 137.125 41.773438 137.144531 41.917969 136.757812 42.355469 L 136.46875 42.6875 L 136.828125 42.367188 C 137.460938 41.808594 137.128906 41.207031 136.007812 40.882812 C 135.832031 40.828125 135.449219 40.699219 135.152344 40.59375 C 134.636719 40.402344 134.621094 40.378906 134.726562 40.003906 C 134.871094 39.5 135.210938 39.125 135.523438 39.125 C 135.660156 39.125 135.734375 39.070312 135.691406 39 C 135.539062 38.753906 135.132812 38.871094 134.804688 39.253906 M 199.429688 38.957031 C 199.195312 39.015625 199.097656 39.769531 199.03125 42.101562 C 199.003906 43.214844 199.019531 43.332031 199.242188 43.375 C 199.628906 43.453125 199.707031 43.167969 199.707031 41.617188 C 199.710938 40.761719 199.761719 40.160156 199.835938 40.160156 C 199.988281 40.160156 200.261719 40.679688 200.488281 41.394531 C 201.234375 43.757812 201.40625 43.816406 202.152344 41.941406 C 203.089844 39.582031 203.003906 39.617188 203.078125 41.585938 C 203.140625 43.277344 203.152344 43.335938 203.433594 43.375 C 203.753906 43.421875 203.753906 43.40625 203.761719 40.226562 L 203.765625 39.0625 L 202.792969 39.0625 L 202.28125 40.355469 C 202 41.070312 201.710938 41.707031 201.636719 41.78125 C 201.476562 41.9375 201.375 41.769531 200.714844 40.292969 C 200.28125 39.316406 199.941406 38.835938 199.71875 38.882812 C 199.675781 38.890625 199.550781 38.921875 199.429688 38.957031 M 6.03125 39.128906 C 5.886719 39.21875 5.808594 43.085938 5.945312 43.226562 C 6.003906 43.285156 6.558594 43.335938 7.175781 43.335938 C 8.242188 43.335938 8.300781 43.320312 8.339844 43.042969 C 8.378906 42.765625 8.339844 42.75 7.472656 42.75 C 6.976562 42.75 6.527344 42.691406 6.484375 42.617188 C 6.4375 42.542969 6.4375 42.257812 6.488281 41.976562 C 6.570312 41.472656 6.570312 41.46875 7.238281 41.429688 C 7.746094 41.402344 7.917969 41.339844 7.949219 41.171875 C 7.984375 40.988281 7.867188 40.945312 7.238281 40.914062 L 6.488281 40.875 L 6.445312 40.363281 C 6.390625 39.691406 6.636719 39.515625 7.621094 39.515625 C 8.277344 39.515625 8.378906 39.484375 8.339844 39.289062 C 8.300781 39.09375 8.140625 39.0625 7.214844 39.0625 C 6.625 39.0625 6.089844 39.09375 6.03125 39.128906 M 9.617188 39.082031 C 9.570312 39.132812 9.527344 40.125 9.527344 41.289062 C 9.527344 43.09375 9.558594 43.417969 9.730469 43.484375 C 10.035156 43.601562 10.1875 43.371094 10.226562 42.738281 C 10.25 42.425781 10.273438 42.039062 10.285156 41.878906 C 10.304688 41.636719 10.382812 41.585938 10.75 41.585938 C 11.171875 41.585938 11.21875 41.632812 11.542969 42.355469 C 11.929688 43.21875 12.273438 43.597656 12.5625 43.484375 C 12.722656 43.425781 12.675781 43.25 12.300781 42.484375 L 11.839844 41.558594 L 12.117188 41.265625 C 12.699219 40.644531 12.378906 39.332031 11.589844 39.109375 C 11.171875 38.992188 9.726562 38.976562 9.617188 39.082031 M 13.757812 39.082031 C 13.710938 39.132812 13.671875 40.125 13.671875 41.292969 L 13.671875 43.417969 L 13.964844 43.375 C 14.246094 43.335938 14.253906 43.285156 14.289062 41.683594 C 14.3125 40.679688 14.378906 40.035156 14.457031 40.035156 C 14.585938 40.035156 15 40.882812 15.621094 42.429688 C 16.085938 43.578125 16.308594 43.679688 16.527344 42.847656 C 16.734375 42.058594 17.566406 40.160156 17.699219 40.160156 C 17.765625 40.160156 17.820312 40.757812 17.828125 41.488281 C 17.847656 43.359375 17.84375 43.335938 18.136719 43.335938 C 18.355469 43.335938 18.402344 43.234375 18.441406 42.6875 C 18.464844 42.332031 18.445312 41.382812 18.394531 40.582031 L 18.304688 39.125 L 17.882812 39.125 C 17.492188 39.125 17.433594 39.1875 17.128906 39.871094 C 16.945312 40.28125 16.691406 40.902344 16.558594 41.25 C 16.433594 41.601562 16.257812 41.910156 16.179688 41.9375 C 16.101562 41.964844 15.789062 41.394531 15.480469 40.65625 C 15.175781 39.921875 14.867188 39.246094 14.800781 39.160156 C 14.667969 38.988281 13.90625 38.933594 13.757812 39.082031 M 21.988281 39.191406 C 21.28125 39.5 21.085938 40.46875 21.617188 41 C 21.785156 41.167969 22.234375 41.402344 22.609375 41.511719 C 23.816406 41.871094 24.132812 42.453125 23.332031 42.835938 C 22.820312 43.082031 22.3125 42.996094 21.988281 42.617188 C 21.769531 42.359375 21.3125 42.265625 21.3125 42.480469 C 21.3125 42.691406 22.070312 43.242188 22.472656 43.335938 C 22.90625 43.429688 23.714844 43.214844 24.0625 42.910156 C 24.203125 42.785156 24.289062 42.527344 24.289062 42.214844 C 24.289062 41.636719 24.085938 41.46875 22.9375 41.070312 C 21.960938 40.734375 21.792969 40.589844 21.890625 40.171875 C 21.996094 39.746094 22.296875 39.515625 22.769531 39.515625 C 23.242188 39.515625 23.570312 39.691406 24.039062 40.207031 L 24.410156 40.617188 L 24.414062 40.21875 C 24.417969 39.71875 24.042969 39.308594 23.414062 39.132812 C 22.78125 38.957031 22.5 38.96875 21.988281 39.191406 M 26.542969 39.125 C 26.1875 39.265625 25.605469 39.96875 25.5 40.371094 C 25.460938 40.546875 25.445312 41.039062 25.476562 41.46875 C 25.527344 42.152344 25.589844 42.304688 26.003906 42.714844 C 26.398438 43.109375 26.574219 43.191406 27.160156 43.234375 C 28.453125 43.332031 29.335938 42.519531 29.335938 41.230469 C 29.335938 40.339844 28.96875 39.648438 28.300781 39.269531 C 27.800781 38.992188 27.03125 38.925781 26.542969 39.125 M 30.503906 40.863281 C 30.503906 41.890625 30.539062 42.824219 30.582031 42.9375 C 30.625 43.054688 30.8125 43.140625 31.015625 43.140625 L 31.375 43.140625 L 31.308594 42.234375 L 31.246094 41.328125 L 32.101562 41.328125 C 32.769531 41.328125 32.960938 41.285156 32.960938 41.140625 C 32.960938 41 32.757812 40.941406 32.152344 40.914062 L 31.34375 40.875 L 31.34375 39.578125 L 32.214844 39.503906 C 33.136719 39.425781 33.300781 39.359375 33.160156 39.136719 C 33.109375 39.054688 32.5625 39 31.789062 39 L 30.503906 39 Z M 34.027344 39.160156 C 34.0625 39.253906 34.398438 39.347656 34.847656 39.386719 L 35.617188 39.449219 L 35.679688 41.285156 C 35.714844 42.292969 35.785156 43.160156 35.835938 43.210938 C 36.03125 43.40625 36.292969 43.140625 36.371094 42.664062 C 36.417969 42.394531 36.453125 41.578125 36.457031 40.855469 C 36.457031 39.410156 36.472656 39.386719 37.308594 39.386719 C 37.617188 39.386719 37.753906 39.324219 37.753906 39.191406 C 37.753906 39.027344 37.457031 39 35.863281 39 C 34.414062 39 33.988281 39.035156 34.027344 39.160156 M 46.675781 40.066406 C 46.117188 41.515625 45.648438 42.890625 45.648438 43.097656 C 45.648438 43.191406 45.765625 43.269531 45.90625 43.269531 C 46.085938 43.269531 46.25 43.082031 46.457031 42.652344 L 46.75 42.039062 L 47.539062 42.003906 C 48.421875 41.960938 48.523438 42.027344 48.800781 42.828125 C 48.976562 43.328125 49.3125 43.542969 49.550781 43.304688 C 49.6875 43.167969 49.039062 41.285156 48.367188 39.871094 C 47.980469 39.050781 47.929688 39 47.523438 39 C 47.105469 39 47.082031 39.023438 46.675781 40.066406 M 50.785156 39.082031 C 50.675781 39.191406 50.667969 42.785156 50.777344 43.0625 C 50.820312 43.175781 50.964844 43.269531 51.09375 43.269531 C 51.300781 43.269531 51.339844 43.144531 51.375 42.394531 L 51.410156 41.523438 L 51.863281 41.523438 C 52.292969 41.523438 52.335938 41.566406 52.714844 42.347656 C 53.117188 43.183594 53.417969 43.476562 53.746094 43.351562 C 53.886719 43.296875 53.824219 43.082031 53.457031 42.367188 L 52.988281 41.453125 L 53.253906 41.164062 C 53.703125 40.683594 53.6875 39.777344 53.226562 39.316406 C 52.945312 39.03125 52.800781 39 51.890625 39 C 51.332031 39 50.832031 39.035156 50.785156 39.082031 M 54.863281 41.0625 C 54.890625 42.195312 54.957031 43.167969 55.011719 43.222656 C 55.113281 43.328125 57.285156 43.296875 57.460938 43.1875 C 57.515625 43.152344 57.558594 43.042969 57.558594 42.941406 C 57.558594 42.808594 57.320312 42.753906 56.621094 42.726562 L 55.683594 42.6875 L 55.640625 41.996094 L 55.605469 41.308594 L 56.324219 41.394531 C 56.921875 41.472656 57.050781 41.453125 57.121094 41.273438 C 57.238281 40.960938 57.132812 40.90625 56.367188 40.890625 L 55.683594 40.875 L 55.683594 39.582031 L 56.425781 39.539062 C 56.9375 39.515625 57.171875 39.449219 57.171875 39.332031 C 57.171875 39.117188 56.601562 39 55.589844 39 L 54.8125 39 Z M 67.8125 39.214844 C 67.238281 39.5 66.882812 40.222656 66.882812 41.109375 C 66.882812 42.054688 67.0625 42.5 67.589844 42.859375 C 68.339844 43.375 69.730469 43.351562 69.730469 42.824219 C 69.730469 42.660156 69.59375 42.640625 68.960938 42.707031 C 68.242188 42.78125 68.175781 42.765625 67.863281 42.425781 C 67.554688 42.09375 67.457031 41.695312 67.507812 41.003906 C 67.582031 40.007812 67.984375 39.617188 68.878906 39.664062 C 69.582031 39.699219 69.816406 39.476562 69.398438 39.171875 C 69.078125 38.9375 68.335938 38.957031 67.8125 39.214844 M 71.398438 39.292969 C 70.816406 39.683594 70.507812 40.328125 70.507812 41.171875 C 70.507812 42.058594 70.777344 42.683594 71.296875 43 C 72.195312 43.546875 73.117188 43.4375 73.914062 42.683594 C 74.375 42.246094 74.519531 41.859375 74.519531 41.078125 C 74.519531 39.488281 72.683594 38.433594 71.398438 39.292969 M 79.800781 39.289062 C 79.695312 39.449219 79.574219 39.679688 79.53125 39.804688 C 79.359375 40.277344 78.523438 41.46875 78.414062 41.398438 C 78.351562 41.359375 78.082031 40.863281 77.8125 40.292969 C 77.378906 39.371094 77.289062 39.257812 76.976562 39.257812 C 76.78125 39.257812 76.449219 39.222656 76.238281 39.179688 L 75.855469 39.101562 L 75.769531 41.039062 C 75.675781 43.085938 75.71875 43.4375 76.054688 43.371094 C 76.324219 43.320312 76.445312 42.636719 76.453125 41.101562 C 76.464844 39.339844 76.789062 39.539062 77.492188 41.746094 C 77.714844 42.4375 77.960938 43.042969 78.039062 43.09375 C 78.253906 43.222656 78.679688 42.628906 79.457031 41.113281 C 79.957031 40.136719 80.171875 39.828125 80.25 39.96875 C 80.308594 40.074219 80.339844 40.84375 80.320312 41.683594 L 80.28125 43.207031 L 81.125 43.285156 L 81.125 41.433594 C 81.125 40.414062 81.160156 39.449219 81.203125 39.289062 C 81.277344 39.015625 81.242188 39 80.636719 39 C 80.105469 39 79.953125 39.050781 79.800781 39.289062 M 89.148438 39.136719 C 89.148438 39.214844 89.34375 39.605469 89.578125 40.011719 C 90.039062 40.800781 90.644531 42.292969 90.78125 42.980469 C 90.839844 43.273438 90.9375 43.398438 91.105469 43.398438 C 91.3125 43.398438 91.335938 43.320312 91.28125 42.847656 C 91.246094 42.546875 91.164062 41.84375 91.101562 41.289062 C 90.996094 40.398438 90.933594 40.226562 90.550781 39.824219 C 89.925781 39.167969 89.148438 38.789062 89.148438 39.136719 M 91.21875 39.132812 C 91.21875 39.210938 91.277344 39.234375 91.351562 39.191406 C 91.421875 39.148438 91.480469 39.085938 91.480469 39.054688 C 91.480469 39.023438 91.421875 39 91.351562 39 C 91.277344 39 91.21875 39.058594 91.21875 39.132812 M 97.234375 39.160156 C 97.199219 39.253906 97.183594 40.234375 97.207031 41.335938 L 97.242188 43.335938 L 98.4375 43.371094 C 99.570312 43.40625 99.636719 43.394531 99.636719 43.144531 C 99.636719 43 99.5625 42.875 99.472656 42.871094 L 98.921875 42.824219 C 98.695312 42.804688 98.464844 42.789062 98.234375 42.773438 C 97.964844 42.753906 97.941406 42.699219 97.976562 42.136719 L 98.019531 41.523438 L 98.664062 41.523438 C 99.152344 41.523438 99.3125 41.472656 99.3125 41.328125 C 99.3125 41.1875 99.136719 41.125 98.667969 41.09375 C 97.96875 41.050781 97.828125 40.933594 97.824219 40.402344 C 97.820312 39.757812 97.933594 39.644531 98.589844 39.644531 C 98.921875 39.644531 99.265625 39.714844 99.351562 39.800781 C 99.46875 39.921875 99.542969 39.921875 99.65625 39.804688 C 99.777344 39.683594 99.707031 39.605469 99.367188 39.464844 C 99.125 39.363281 98.691406 39.242188 98.40625 39.195312 C 98.121094 39.148438 97.753906 39.082031 97.59375 39.050781 C 97.421875 39.015625 97.273438 39.0625 97.234375 39.160156 M 104.441406 39.25 C 104.398438 39.359375 104.359375 40.289062 104.359375 41.316406 L 104.359375 43.183594 L 104.683594 43.21875 C 104.863281 43.238281 105.28125 43.292969 105.617188 43.339844 C 106.375 43.453125 106.757812 43.359375 107.265625 42.933594 C 107.582031 42.664062 107.664062 42.496094 107.664062 42.101562 C 107.664062 41.824219 107.59375 41.449219 107.511719 41.269531 C 107.394531 41.011719 107.398438 40.867188 107.53125 40.621094 C 107.75 40.214844 107.523438 39.625 107.035156 39.300781 C 106.5625 38.992188 104.566406 38.957031 104.441406 39.25 M 108.796875 39.09375 C 108.765625 39.148438 108.777344 39.910156 108.820312 40.789062 L 108.890625 42.382812 L 109.375 42.828125 C 109.792969 43.207031 109.949219 43.269531 110.511719 43.269531 C 111.414062 43.269531 112.15625 42.875 112.414062 42.257812 C 112.570312 41.886719 112.597656 41.5 112.539062 40.5 C 112.457031 39.128906 112.359375 38.890625 111.988281 39.101562 C 111.785156 39.210938 111.761719 39.402344 111.792969 40.679688 C 111.824219 42.03125 111.804688 42.152344 111.535156 42.441406 C 111.136719 42.863281 110.355469 42.871094 109.941406 42.453125 C 109.679688 42.191406 109.628906 41.972656 109.550781 40.800781 C 109.5 40.058594 109.429688 39.347656 109.394531 39.222656 C 109.328125 39 108.886719 38.90625 108.796875 39.09375 M 140.34375 39.164062 C 140.308594 39.257812 140.296875 40.234375 140.316406 41.335938 C 140.347656 43.007812 140.382812 43.335938 140.542969 43.335938 C 140.695312 43.335938 140.75 43.136719 140.777344 42.496094 C 140.839844 41.164062 141.152344 41.167969 142.050781 42.515625 C 142.628906 43.386719 142.921875 43.65625 143.097656 43.480469 C 143.144531 43.429688 142.988281 42.988281 142.746094 42.492188 L 142.308594 41.589844 L 142.597656 41.285156 C 143.296875 40.539062 143.152344 39.539062 142.289062 39.179688 C 141.726562 38.945312 140.429688 38.933594 140.34375 39.164062 M 144.234375 41.078125 C 144.171875 42.4375 144.1875 43.207031 144.269531 43.292969 C 144.355469 43.378906 144.84375 43.386719 145.679688 43.316406 C 146.832031 43.214844 146.953125 43.179688 146.953125 42.949219 C 146.953125 42.707031 146.882812 42.691406 146.03125 42.730469 C 145.425781 42.757812 145.074219 42.722656 145.011719 42.625 C 144.964844 42.542969 144.960938 42.207031 145.007812 41.882812 L 145.097656 41.296875 L 145.640625 41.371094 C 146.234375 41.449219 146.566406 41.324219 146.476562 41.058594 C 146.4375 40.9375 146.226562 40.894531 145.792969 40.921875 C 145.097656 40.964844 144.953125 40.84375 144.953125 40.226562 C 144.953125 39.589844 145.070312 39.515625 146.054688 39.550781 C 146.878906 39.578125 146.953125 39.558594 146.953125 39.320312 C 146.953125 39.082031 146.855469 39.058594 145.644531 39.023438 L 144.332031 38.988281 Z M 148.960938 39.238281 C 148.347656 39.566406 148.039062 40.027344 147.960938 40.722656 C 147.855469 41.648438 148.015625 42.179688 148.574219 42.769531 C 149.070312 43.292969 149.097656 43.300781 149.796875 43.242188 C 150.460938 43.1875 151.03125 42.894531 151.03125 42.601562 C 151.03125 42.449219 150.546875 42.464844 150.449219 42.625 C 150.292969 42.875 149.410156 42.769531 149.121094 42.460938 C 148.5625 41.863281 148.40625 40.855469 148.769531 40.160156 C 149.109375 39.5 149.785156 39.332031 150.535156 39.71875 C 150.980469 39.949219 151.09375 39.90625 150.972656 39.535156 C 150.808594 39.011719 149.691406 38.847656 148.960938 39.238281 M 152.898438 39.257812 C 151.632812 39.882812 151.398438 41.859375 152.476562 42.832031 C 154.207031 44.386719 156.636719 42.148438 155.523438 40.023438 C 155.011719 39.042969 153.957031 38.734375 152.898438 39.257812 M 157.113281 39.082031 C 157.109375 39.144531 157.078125 39.964844 157.035156 40.914062 C 156.949219 42.945312 157.003906 43.304688 157.414062 43.246094 C 157.675781 43.207031 157.703125 43.125 157.738281 42.265625 C 157.769531 41.46875 157.8125 41.328125 158.003906 41.328125 C 158.398438 41.328125 158.660156 41.625 158.984375 42.417969 C 159.3125 43.222656 159.539062 43.453125 159.828125 43.273438 C 159.96875 43.1875 159.921875 42.992188 159.578125 42.285156 C 159.304688 41.714844 159.207031 41.386719 159.304688 41.351562 C 160.003906 41.121094 160.15625 40.070312 159.589844 39.371094 C 159.371094 39.097656 159.214844 39.058594 158.226562 39.015625 C 157.617188 38.992188 157.113281 39.019531 157.113281 39.082031 M 161.421875 39.074219 C 161.175781 39.1875 161.191406 43.214844 161.4375 43.308594 C 161.785156 43.445312 163.082031 43.285156 163.554688 43.054688 C 164.230469 42.71875 164.558594 42.09375 164.558594 41.132812 C 164.558594 40.222656 164.234375 39.546875 163.65625 39.269531 C 163.269531 39.082031 161.707031 38.945312 161.421875 39.074219 M 166.566406 39.089844 C 165.730469 39.394531 165.535156 40.3125 166.1875 40.863281 C 166.410156 41.046875 166.65625 41.199219 166.742188 41.199219 C 166.824219 41.199219 167.113281 41.347656 167.378906 41.527344 C 167.910156 41.886719 168.015625 42.324219 167.660156 42.679688 C 167.328125 43.007812 166.796875 42.929688 166.414062 42.492188 C 166.078125 42.113281 165.660156 42.070312 165.660156 42.417969 C 165.660156 42.65625 166.152344 43.128906 166.476562 43.203125 C 167.304688 43.398438 167.777344 43.324219 168.242188 42.933594 C 169.035156 42.269531 168.648438 41.347656 167.375 40.875 C 167.039062 40.746094 166.6875 40.585938 166.601562 40.515625 C 166.328125 40.304688 166.414062 39.796875 166.753906 39.570312 C 167.15625 39.3125 167.535156 39.414062 168.089844 39.945312 C 168.386719 40.222656 168.550781 40.300781 168.644531 40.207031 C 168.882812 39.96875 168.199219 39.304688 167.546875 39.144531 C 166.921875 38.988281 166.859375 38.980469 166.566406 39.089844 M 179.386719 39.136719 C 178.613281 39.460938 178.199219 40.148438 178.195312 41.117188 C 178.183594 42.542969 178.964844 43.371094 180.1875 43.226562 C 180.875 43.144531 181.199219 42.96875 181.199219 42.671875 C 181.199219 42.429688 180.785156 42.445312 180.234375 42.707031 C 179.863281 42.886719 179.71875 42.898438 179.445312 42.773438 C 178.851562 42.503906 178.554688 41.308594 178.875 40.460938 C 179.210938 39.582031 179.886719 39.300781 180.675781 39.707031 C 180.984375 39.867188 181.054688 39.867188 181.109375 39.71875 C 181.304688 39.210938 180.140625 38.816406 179.386719 39.136719 M 184.925781 40.699219 C 184.855469 42.585938 184.78125 42.75 183.980469 42.75 C 183.167969 42.75 183.078125 42.566406 183.027344 40.75 C 182.984375 39.160156 182.972656 39.113281 182.703125 39.152344 C 182.441406 39.191406 182.425781 39.269531 182.390625 40.761719 C 182.355469 42.285156 182.367188 42.347656 182.683594 42.730469 C 183.605469 43.820312 185.175781 43.394531 185.40625 41.992188 C 185.539062 41.160156 185.359375 39 185.152344 39 C 185.027344 39 184.96875 39.4375 184.925781 40.699219 M 187.28125 39.21875 C 186.941406 39.394531 186.796875 39.570312 186.707031 39.933594 C 186.558594 40.546875 186.789062 40.835938 187.832031 41.332031 C 188.742188 41.761719 188.964844 41.941406 188.964844 42.230469 C 188.964844 42.882812 187.914062 43.09375 187.332031 42.558594 C 186.953125 42.207031 186.703125 42.148438 186.558594 42.382812 C 186.421875 42.601562 187.0625 43.105469 187.683594 43.273438 C 188.898438 43.601562 190.074219 42.523438 189.441406 41.664062 C 189.351562 41.535156 188.867188 41.21875 188.375 40.957031 C 187.625 40.5625 187.46875 40.425781 187.4375 40.121094 C 187.34375 39.34375 187.988281 39.164062 188.839844 39.726562 C 189.363281 40.078125 189.574219 40.074219 189.441406 39.722656 C 189.21875 39.144531 187.988281 38.855469 187.28125 39.21875 M 190.449219 39.136719 C 190.316406 39.347656 190.496094 39.449219 191.015625 39.449219 L 191.488281 39.449219 L 191.574219 40.292969 C 191.617188 40.753906 191.660156 41.613281 191.667969 42.203125 C 191.679688 43.171875 191.707031 43.269531 191.941406 43.269531 C 192.179688 43.269531 192.199219 43.164062 192.230469 41.359375 L 192.265625 39.449219 L 192.816406 39.410156 C 193.191406 39.382812 193.367188 39.3125 193.367188 39.183594 C 193.367188 39.035156 193.097656 39 191.953125 39 C 191.085938 39 190.5 39.050781 190.449219 39.136719 M 195.1875 39.222656 C 194.523438 39.566406 194.234375 40.042969 194.175781 40.90625 C 194.054688 42.726562 195.640625 43.886719 197.050781 43.015625 C 197.765625 42.574219 197.949219 42.199219 197.949219 41.207031 C 197.949219 39.816406 197.257812 39 196.085938 39 C 195.835938 39 195.433594 39.101562 195.1875 39.222656 M 205.105469 39.082031 C 205.058594 39.132812 205.015625 40.085938 205.015625 41.207031 C 205.015625 42.960938 205.046875 43.253906 205.226562 43.320312 C 205.34375 43.367188 205.894531 43.363281 206.457031 43.316406 C 207.324219 43.246094 207.480469 43.195312 207.480469 42.996094 C 207.480469 42.796875 207.347656 42.757812 206.605469 42.726562 L 205.730469 42.6875 L 205.730469 41.261719 L 206.25 41.25 C 207.082031 41.234375 207.21875 41.207031 207.21875 41.070312 C 207.21875 40.996094 206.871094 40.9375 206.4375 40.9375 L 205.652344 40.9375 L 205.730469 39.710938 L 206.570312 39.644531 C 207.324219 39.585938 207.417969 39.546875 207.457031 39.289062 C 207.496094 39.003906 207.464844 39 206.34375 39 C 205.710938 39 205.152344 39.035156 205.105469 39.082031 M 208.703125 39.164062 C 208.664062 39.257812 208.652344 40.234375 208.671875 41.335938 C 208.707031 43.296875 208.714844 43.335938 209 43.375 C 209.277344 43.414062 209.292969 43.375 209.292969 42.503906 L 209.292969 41.585938 L 209.75 41.585938 C 210.1875 41.585938 210.226562 41.625 210.574219 42.410156 C 210.953125 43.25 211.308594 43.566406 211.449219 43.191406 C 211.492188 43.078125 211.359375 42.636719 211.15625 42.207031 L 210.785156 41.429688 L 211.085938 41.1875 C 211.441406 40.898438 211.59375 40.078125 211.367188 39.652344 C 211.28125 39.492188 211.015625 39.28125 210.773438 39.179688 C 210.210938 38.945312 208.789062 38.933594 208.703125 39.164062 M 213.824219 39.136719 C 213.246094 39.265625 212.917969 39.679688 212.917969 40.285156 C 212.917969 40.9375 213.339844 41.328125 214.121094 41.390625 C 214.953125 41.460938 215.246094 41.648438 215.246094 42.105469 C 215.246094 42.90625 213.933594 43.148438 213.222656 42.480469 C 212.984375 42.25 212.878906 42.21875 212.757812 42.339844 C 212.636719 42.460938 212.679688 42.574219 212.953125 42.847656 C 213.25 43.144531 213.433594 43.203125 214.191406 43.246094 C 215.027344 43.292969 215.109375 43.273438 215.507812 42.914062 C 216.390625 42.128906 215.875 41.128906 214.414062 40.800781 C 213.542969 40.605469 213.351562 40.425781 213.574219 40.011719 C 213.886719 39.410156 214.332031 39.359375 215.039062 39.839844 C 215.59375 40.214844 215.800781 40.246094 215.742188 39.949219 C 215.636719 39.433594 214.570312 38.980469 213.824219 39.136719 M 62.121094 39.222656 C 61.664062 39.304688 61.398438 39.816406 61.492188 40.414062 C 61.5625 40.835938 61.519531 40.984375 61.25 41.304688 C 60.777344 41.863281 60.808594 42.5 61.324219 42.933594 C 61.804688 43.339844 62.410156 43.371094 62.867188 43.011719 C 63.277344 42.691406 63.339844 42.691406 63.425781 43.023438 C 63.523438 43.398438 63.824219 43.265625 63.910156 42.804688 C 63.960938 42.535156 63.90625 42.351562 63.714844 42.152344 C 63.570312 42.003906 63.304688 41.664062 63.125 41.40625 C 62.949219 41.144531 62.613281 40.847656 62.382812 40.746094 C 61.910156 40.539062 61.808594 40.074219 62.164062 39.71875 C 62.429688 39.457031 62.519531 39.460938 62.796875 39.765625 C 62.957031 39.945312 63 40.125 62.933594 40.414062 C 62.84375 40.824219 62.964844 40.921875 63.230469 40.65625 C 63.457031 40.425781 63.421875 39.84375 63.160156 39.539062 C 62.902344 39.246094 62.554688 39.136719 62.121094 39.222656 M 86.632812 39.417969 C 86.511719 39.960938 86.300781 42.035156 86.300781 42.648438 C 86.300781 43.707031 86.902344 43.585938 86.972656 42.515625 C 87.003906 42.050781 87.066406 41.902344 87.25 41.867188 C 87.792969 41.761719 88.09375 41.972656 88.433594 42.6875 C 88.671875 43.195312 88.84375 43.398438 89.023438 43.398438 C 89.207031 43.398438 89.277344 43.308594 89.277344 43.085938 C 89.277344 42.714844 88.167969 40.457031 87.605469 39.675781 C 87.15625 39.0625 86.734375 38.949219 86.632812 39.417969 M 172.402344 39.46875 C 172.117188 39.828125 172.046875 40.355469 172.261719 40.484375 C 172.492188 40.628906 172.402344 41.085938 172.070312 41.480469 C 171.492188 42.171875 171.640625 42.585938 172.660156 43.132812 C 173.078125 43.359375 173.15625 43.363281 173.515625 43.1875 C 173.734375 43.082031 173.980469 42.84375 174.066406 42.660156 C 174.226562 42.304688 174.40625 42.371094 174.484375 42.816406 C 174.511719 42.957031 174.636719 43.09375 174.757812 43.117188 C 175.214844 43.203125 174.972656 42.648438 174.207031 41.855469 C 173.78125 41.414062 173.429688 41.007812 173.429688 40.957031 C 173.429688 40.902344 173.601562 40.664062 173.8125 40.425781 C 174.234375 39.957031 174.199219 39.707031 173.660156 39.328125 C 173.21875 39.019531 172.710938 39.078125 172.402344 39.46875 M 82.898438 39.492188 C 82.773438 39.644531 82.582031 41.546875 82.554688 42.859375 C 82.546875 43.265625 82.566406 43.285156 82.964844 43.246094 C 83.375 43.207031 83.386719 43.183594 83.386719 42.625 C 83.386719 42.097656 83.417969 42.035156 83.710938 42.003906 C 84.394531 41.925781 85.082031 41.582031 85.300781 41.210938 C 85.632812 40.652344 85.589844 39.882812 85.214844 39.527344 C 84.941406 39.273438 84.792969 39.242188 83.976562 39.28125 C 83.402344 39.304688 82.988281 39.386719 82.898438 39.492188 M 136.578125 39.449219 C 136.683594 39.558594 136.8125 39.644531 136.863281 39.644531 C 136.914062 39.644531 136.878906 39.558594 136.792969 39.449219 C 136.703125 39.34375 136.574219 39.257812 136.507812 39.257812 C 136.4375 39.257812 136.472656 39.34375 136.578125 39.449219 M 140.886719 39.421875 C 140.710938 39.550781 140.667969 39.734375 140.699219 40.234375 L 140.738281 40.875 L 141.347656 40.914062 C 141.910156 40.949219 141.972656 40.921875 142.15625 40.5625 C 142.410156 40.074219 142.242188 39.566406 141.769531 39.382812 C 141.328125 39.214844 141.160156 39.222656 140.886719 39.421875 M 10.332031 39.539062 C 10.246094 39.625 10.175781 40.035156 10.175781 40.449219 L 10.175781 41.199219 L 10.671875 41.199219 C 11.234375 41.199219 11.539062 41.003906 11.640625 40.574219 C 11.761719 40.050781 11.503906 39.554688 11.058594 39.464844 C 10.53125 39.359375 10.511719 39.359375 10.332031 39.539062 M 26.925781 39.632812 C 26.320312 40 26.101562 40.394531 26.101562 41.105469 C 26.101562 41.914062 26.363281 42.402344 26.941406 42.679688 C 27.378906 42.886719 27.429688 42.886719 27.886719 42.664062 C 28.148438 42.535156 28.4375 42.28125 28.523438 42.105469 C 28.914062 41.316406 28.578125 40.070312 27.859375 39.632812 C 27.371094 39.332031 27.417969 39.332031 26.925781 39.632812 M 51.433594 39.472656 C 51.386719 39.519531 51.34375 39.898438 51.34375 40.3125 L 51.34375 41.070312 L 51.960938 41.066406 C 52.300781 41.066406 52.652344 41.015625 52.746094 40.957031 C 53.011719 40.789062 52.976562 39.761719 52.695312 39.558594 C 52.453125 39.378906 51.585938 39.320312 51.433594 39.472656 M 157.695312 39.824219 C 157.546875 40.613281 157.648438 40.871094 158.136719 40.917969 C 159.082031 41.007812 159.449219 40.652344 159.171875 39.925781 C 159.003906 39.488281 158.84375 39.390625 158.257812 39.386719 C 157.8125 39.386719 157.769531 39.421875 157.695312 39.824219 M 172.859375 39.554688 C 172.574219 39.761719 172.625 40.402344 172.9375 40.597656 C 173.402344 40.890625 173.9375 39.945312 173.535156 39.539062 C 173.332031 39.34375 173.148438 39.34375 172.859375 39.554688 M 209.34375 39.566406 C 209.304688 39.660156 209.292969 40.027344 209.316406 40.371094 L 209.355469 41.003906 L 209.960938 41.042969 C 210.472656 41.078125 210.59375 41.039062 210.71875 40.804688 C 210.917969 40.433594 210.765625 39.679688 210.460938 39.515625 C 210.105469 39.328125 209.425781 39.355469 209.34375 39.566406 M 71.757812 39.78125 C 71.421875 40.042969 71.15625 40.722656 71.152344 41.308594 C 71.152344 41.796875 71.546875 42.488281 71.941406 42.691406 C 72.496094 42.980469 72.820312 42.921875 73.285156 42.460938 C 74.308594 41.4375 73.796875 39.515625 72.5 39.515625 C 72.277344 39.515625 71.941406 39.632812 71.757812 39.78125 M 105.257812 39.6875 C 105.21875 39.789062 105.203125 40.128906 105.226562 40.4375 C 105.269531 41.054688 105.238281 41.042969 106.328125 40.867188 C 107.257812 40.71875 106.875 39.613281 105.867188 39.539062 C 105.488281 39.511719 105.308594 39.554688 105.257812 39.6875 M 152.910156 39.902344 C 152.609375 40.21875 152.527344 40.433594 152.484375 41.046875 C 152.433594 41.746094 152.460938 41.839844 152.832031 42.265625 C 153.515625 43.039062 154.289062 43.015625 154.785156 42.203125 C 155.261719 41.425781 155.050781 39.992188 154.40625 39.648438 C 153.917969 39.386719 153.304688 39.492188 152.910156 39.902344 M 161.972656 39.640625 C 161.929688 39.710938 161.9375 40.445312 161.984375 41.269531 C 162.085938 42.953125 162.125 43.011719 162.960938 42.761719 C 163.601562 42.570312 163.976562 42.003906 163.976562 41.226562 C 163.976562 40.542969 163.699219 39.84375 163.351562 39.65625 C 163.027344 39.480469 162.078125 39.472656 161.972656 39.640625 M 195.359375 39.75 C 194.957031 40.089844 194.792969 40.472656 194.792969 41.066406 C 194.792969 42.371094 195.992188 43.222656 196.855469 42.527344 C 197.488281 42.011719 197.453125 40.375 196.796875 39.804688 C 196.390625 39.457031 195.746094 39.433594 195.359375 39.75 M 47.394531 39.9375 C 46.796875 41.59375 46.792969 41.585938 47.59375 41.585938 C 47.949219 41.585938 48.238281 41.539062 48.238281 41.480469 C 48.238281 41.425781 48.117188 41.015625 47.96875 40.578125 C 47.707031 39.804688 47.519531 39.59375 47.394531 39.9375 M 83.59375 40.183594 C 83.515625 40.40625 83.453125 40.785156 83.453125 41.023438 C 83.453125 41.394531 83.496094 41.457031 83.757812 41.457031 C 83.925781 41.457031 84.21875 41.304688 84.40625 41.117188 C 84.976562 40.546875 84.777344 39.773438 84.054688 39.773438 C 83.816406 39.773438 83.703125 39.871094 83.59375 40.183594 M 87.164062 40.257812 C 87.101562 40.355469 87.039062 41.113281 87.066406 41.425781 C 87.085938 41.667969 87.855469 41.632812 87.855469 41.390625 C 87.855469 40.886719 87.320312 40.007812 87.164062 40.257812 M 105.976562 41.445312 L 105.265625 41.523438 L 105.226562 42.132812 C 105.191406 42.699219 105.214844 42.75 105.53125 42.828125 C 105.71875 42.875 106.09375 42.847656 106.363281 42.769531 C 106.953125 42.59375 107.261719 42.046875 107.019531 41.597656 C 106.941406 41.449219 106.832031 41.335938 106.785156 41.347656 C 106.734375 41.359375 106.371094 41.402344 105.976562 41.445312 M 136.726562 41.457031 C 136.769531 41.527344 136.832031 41.585938 136.863281 41.585938 C 136.894531 41.585938 136.917969 41.527344 136.917969 41.457031 C 136.917969 41.386719 136.859375 41.328125 136.785156 41.328125 C 136.710938 41.328125 136.683594 41.386719 136.726562 41.457031 M 172.726562 41.617188 C 172.449219 42.011719 172.472656 42.457031 172.78125 42.625 C 173.132812 42.808594 173.558594 42.574219 173.558594 42.195312 C 173.558594 41.878906 173.226562 41.328125 173.039062 41.328125 C 172.980469 41.328125 172.835938 41.457031 172.726562 41.617188 M 61.597656 41.613281 C 61.355469 41.859375 61.417969 42.21875 61.757812 42.5625 C 62.398438 43.203125 63.085938 42.425781 62.46875 41.769531 C 62.148438 41.425781 61.839844 41.371094 61.597656 41.613281 M 130.578125 41.828125 C 130.398438 42.027344 130.175781 42.21875 130.085938 42.25 C 129.804688 42.339844 130.046875 42.722656 130.476562 42.871094 C 131.125 43.097656 131.695312 43.039062 132.078125 42.707031 C 132.503906 42.34375 132.441406 42.082031 131.84375 41.71875 C 131.273438 41.371094 130.964844 41.394531 130.578125 41.828125 M 134.769531 42.46875 C 134.902344 42.683594 135.671875 42.863281 136.09375 42.773438 C 136.421875 42.703125 136.382812 42.683594 135.820312 42.613281 C 135.464844 42.570312 135.0625 42.484375 134.925781 42.425781 C 134.753906 42.351562 134.703125 42.363281 134.769531 42.46875 M 100.671875 43.183594 C 100.671875 43.574219 100.636719 43.988281 100.59375 44.101562 C 100.425781 44.53125 100.824219 44.28125 101.007812 43.839844 C 101.257812 43.242188 101.203125 42.574219 100.898438 42.515625 C 100.703125 42.480469 100.671875 42.578125 100.671875 43.183594 " fill-opacity="1" fill-rule="evenodd"/></g><g clip-path="url(#97b7ee48e4)"><g clip-path="url(#d0c2c766c5)"><path fill="#1777dc" d="M 211.621094 3.1875 L 215.324219 3.1875 L 215.324219 6.894531 L 211.621094 6.894531 Z M 211.621094 3.1875 " fill-opacity="1" fill-rule="nonzero"/></g></g></svg>