<svg xmlns="http://www.w3.org/2000/svg" xmlns:xlink="http://www.w3.org/1999/xlink" width="292" zoomAndPan="magnify" viewBox="0 0 218.87999 40.499999" height="54" preserveAspectRatio="xMidYMid meet" version="1.0"><defs><clipPath id="7604fd64ac"><path d="M 5.589844 1 L 216.179688 1 L 216.179688 37.769531 L 5.589844 37.769531 Z M 5.589844 1 " clip-rule="nonzero"/></clipPath><clipPath id="e965207882"><path d="M 211.621094 0 L 215.324219 0 L 215.324219 3.703125 L 211.621094 3.703125 Z M 211.621094 0 " clip-rule="nonzero"/></clipPath><clipPath id="2da75cc0aa"><path d="M 213.472656 0 C 213.964844 0 214.433594 0.195312 214.78125 0.542969 C 215.128906 0.890625 215.324219 1.359375 215.324219 1.851562 C 215.324219 2.34375 215.128906 2.8125 214.78125 3.160156 C 214.433594 3.507812 213.964844 3.703125 213.472656 3.703125 C 212.980469 3.703125 212.507812 3.507812 212.164062 3.160156 C 211.816406 2.8125 211.621094 2.34375 211.621094 1.851562 C 211.621094 1.359375 211.816406 0.890625 212.164062 0.542969 C 212.507812 0.195312 212.980469 0 213.472656 0 Z M 213.472656 0 " clip-rule="nonzero"/></clipPath></defs><g clip-path="url(#7604fd64ac)"><path fill="#ffffff" d="M 188.960938 1.347656 C 188.292969 1.683594 188.3125 1.234375 188.308594 15.25 C 188.308594 28.046875 188.316406 28.355469 188.5625 28.671875 C 188.792969 28.964844 188.925781 28.996094 190.171875 29.070312 C 190.925781 29.109375 191.734375 29.089844 191.988281 29.019531 C 192.835938 28.785156 192.820312 28.882812 192.746094 23.679688 C 192.671875 18.710938 192.742188 17.730469 193.246094 16.660156 C 193.65625 15.789062 194.335938 15.089844 195.199219 14.660156 C 195.878906 14.320312 196.136719 14.265625 196.988281 14.265625 C 198.902344 14.265625 200.074219 14.882812 200.742188 16.25 C 200.957031 16.6875 201.191406 17.363281 201.265625 17.746094 C 201.335938 18.136719 201.394531 20.644531 201.394531 23.453125 C 201.394531 27.464844 201.429688 28.511719 201.570312 28.703125 C 201.765625 28.96875 202.644531 29.136719 203.933594 29.152344 C 205.140625 29.164062 205.53125 29.050781 205.816406 28.59375 C 206.058594 28.207031 206.070312 27.96875 206.019531 23.199219 C 205.972656 18.582031 205.949219 18.136719 205.6875 17.175781 C 205.140625 15.160156 203.816406 12.851562 202.667969 11.910156 C 201.257812 10.757812 199.457031 10.117188 197.621094 10.117188 C 196.203125 10.117188 195.414062 10.308594 194.101562 10.96875 C 193.472656 11.285156 192.929688 11.542969 192.898438 11.542969 C 192.871094 11.542969 192.84375 9.390625 192.84375 6.765625 C 192.84375 1.386719 192.871094 1.539062 191.871094 1.304688 C 191.121094 1.128906 189.335938 1.15625 188.960938 1.347656 M 131.265625 2.738281 C 128.164062 3.261719 125.46875 5.339844 123.960938 8.371094 C 123.207031 9.882812 122.882812 12.179688 123.148438 14.132812 C 123.339844 15.554688 124.046875 17.675781 124.738281 18.90625 C 125.417969 20.105469 127.035156 21.84375 128.183594 22.601562 C 129.125 23.226562 130.546875 23.882812 131.449219 24.113281 C 132.222656 24.3125 137.6875 24.417969 139.1875 24.265625 C 140.496094 24.128906 140.761719 23.984375 141.3125 23.09375 C 141.691406 22.480469 141.695312 21.132812 141.320312 20.414062 C 140.546875 18.9375 139.828125 18.667969 136.640625 18.667969 C 134.003906 18.667969 132.957031 18.519531 131.914062 17.996094 C 130.558594 17.316406 129.457031 15.851562 129.109375 14.257812 C 128.890625 13.265625 128.988281 11.609375 129.304688 10.960938 C 129.625 10.300781 130.484375 9.4375 131.171875 9.085938 C 132 8.664062 133.226562 8.570312 137.988281 8.566406 L 142.402344 8.5625 L 142.839844 8.886719 C 143.257812 9.195312 143.363281 9.210938 145.058594 9.210938 C 147.972656 9.210938 147.894531 9.300781 147.894531 6.042969 C 147.894531 3.734375 147.871094 3.519531 147.628906 3.214844 C 147.488281 3.03125 147.183594 2.824219 146.953125 2.753906 C 146.441406 2.601562 132.179688 2.585938 131.265625 2.738281 M 212.273438 2.878906 C 210.472656 3.421875 209.898438 5.5625 211.152344 7.082031 C 212.171875 8.320312 214.078125 8.375 215.117188 7.195312 C 215.652344 6.582031 215.773438 6.246094 215.773438 5.339844 C 215.773438 4.730469 215.703125 4.488281 215.390625 4.011719 C 214.734375 3.023438 213.40625 2.539062 212.273438 2.878906 M 6.589844 3.453125 C 6.429688 3.566406 6.207031 3.84375 6.085938 4.070312 C 5.890625 4.449219 5.878906 5.472656 5.953125 16.386719 C 6.042969 29.519531 5.992188 28.808594 6.855469 28.96875 C 7.09375 29.015625 9.613281 29.027344 12.460938 29.003906 C 17.378906 28.953125 17.675781 28.9375 18.386719 28.675781 C 21.726562 27.429688 23.445312 25.230469 23.621094 21.972656 C 23.703125 20.515625 23.515625 19.527344 22.945312 18.398438 C 22.558594 17.640625 21.15625 16.199219 20.5625 15.953125 C 20.101562 15.761719 20.046875 15.5 20.429688 15.296875 C 20.902344 15.042969 21.835938 13.625 22.105469 12.746094 C 22.425781 11.714844 22.453125 9.792969 22.167969 8.574219 C 21.53125 5.886719 19.605469 4.023438 16.863281 3.445312 C 15.488281 3.160156 7.003906 3.164062 6.589844 3.453125 M 176.246094 5.28125 C 175.953125 5.359375 175.875 5.964844 175.875 8.257812 L 175.875 10.21875 L 174.585938 10.269531 C 173.4375 10.3125 173.257812 10.355469 172.960938 10.632812 C 172.554688 11.019531 172.191406 12.191406 172.292969 12.804688 C 172.445312 13.753906 173.148438 14.132812 174.757812 14.132812 L 175.851562 14.132812 L 175.90625 19.15625 C 175.964844 24.347656 175.996094 24.617188 176.5625 25.921875 C 177.144531 27.257812 178.546875 28.464844 180.066406 28.925781 C 181.175781 29.265625 183.328125 29.332031 183.996094 29.050781 C 184.679688 28.761719 184.8125 28.425781 184.8125 26.957031 C 184.8125 25.726562 184.792969 25.632812 184.488281 25.347656 C 184.089844 24.980469 183.652344 24.886719 182.386719 24.886719 C 181.265625 24.886719 180.75 24.65625 180.542969 24.0625 C 180.457031 23.828125 180.40625 21.84375 180.40625 18.90625 L 180.40625 14.132812 L 181.773438 14.132812 C 183.472656 14.132812 183.914062 13.976562 184.304688 13.207031 C 184.636719 12.550781 184.699219 11.472656 184.429688 10.972656 C 184.105469 10.363281 183.6875 10.199219 182.414062 10.179688 C 181.773438 10.167969 181.0625 10.152344 180.828125 10.140625 L 180.40625 10.117188 L 180.40625 7.734375 C 180.40625 5.683594 180.378906 5.339844 180.203125 5.273438 C 179.976562 5.1875 176.578125 5.195312 176.246094 5.28125 M 11.226562 7.636719 L 10.511719 7.722656 L 10.476562 10.734375 L 10.445312 13.746094 L 13.003906 13.746094 C 14.425781 13.746094 15.789062 13.683594 16.066406 13.605469 C 16.339844 13.527344 16.816406 13.234375 17.125 12.949219 C 18.75 11.453125 18.238281 8.734375 16.164062 7.832031 C 15.648438 7.605469 12.519531 7.484375 11.226562 7.636719 M 50.929688 10.109375 C 48.0625 10.582031 45.910156 12.546875 46.101562 14.523438 C 46.203125 15.585938 47.148438 16.3125 48.507812 16.375 C 49.113281 16.398438 49.167969 16.371094 50.035156 15.578125 C 51.230469 14.480469 51.738281 14.234375 52.949219 14.160156 C 55.832031 13.988281 57.851562 15.777344 58.261719 18.871094 C 58.539062 20.9375 57.96875 22.742188 56.683594 23.898438 C 54.769531 25.621094 51.589844 25.46875 50.230469 23.585938 C 49.648438 22.78125 49.40625 21.890625 49.324219 20.226562 C 49.25 18.808594 49.234375 18.734375 48.921875 18.570312 C 48.722656 18.464844 48.292969 18.414062 47.804688 18.441406 C 46.710938 18.5 46.035156 18.949219 45.589844 19.921875 C 44.621094 22.042969 45.390625 25.101562 47.410156 27.148438 C 48.929688 28.691406 50.449219 29.285156 52.875 29.285156 C 55.039062 29.285156 56.257812 28.921875 57.699219 27.847656 L 58.378906 27.339844 L 58.378906 27.738281 C 58.378906 28.285156 58.695312 28.851562 59.054688 28.949219 C 59.21875 28.992188 60.03125 29.027344 60.863281 29.03125 C 62.066406 29.03125 62.417969 28.992188 62.578125 28.828125 C 62.761719 28.648438 62.78125 27.640625 62.78125 19.710938 C 62.78125 12.019531 62.757812 10.777344 62.59375 10.640625 C 62.238281 10.34375 61.429688 10.246094 60.027344 10.332031 C 58.425781 10.425781 58.40625 10.441406 58.285156 11.621094 L 58.210938 12.324219 L 57.679688 11.886719 C 55.960938 10.484375 53.160156 9.742188 50.929688 10.109375 M 92.550781 10.175781 C 91.324219 10.433594 90.113281 11.050781 89.222656 11.875 C 88.15625 12.863281 87.667969 14.191406 88.085938 14.988281 C 88.539062 15.859375 89.394531 16.335938 90.496094 16.335938 C 91.054688 16.335938 91.148438 16.285156 91.847656 15.578125 C 92.96875 14.441406 93.535156 14.199219 95.039062 14.199219 C 96.148438 14.199219 96.355469 14.238281 97.128906 14.605469 C 97.601562 14.832031 98.21875 15.222656 98.5 15.476562 C 99.835938 16.683594 100.390625 18.980469 99.90625 21.277344 C 99.5 23.1875 98.511719 24.203125 96.472656 24.804688 C 94.917969 25.269531 93.546875 24.964844 92.511719 23.929688 C 91.449219 22.871094 91.222656 21.847656 91.445312 19.128906 C 91.46875 18.824219 91.398438 18.703125 91.042969 18.496094 C 90.648438 18.261719 90.539062 18.257812 89.742188 18.398438 C 88.753906 18.574219 88.308594 18.820312 87.84375 19.457031 C 87.1875 20.347656 86.953125 22.050781 87.277344 23.617188 C 87.683594 25.558594 89.28125 27.640625 91.023438 28.492188 C 93.597656 29.75 97.203125 29.503906 99.28125 27.933594 L 100.019531 27.375 L 100.1875 28.042969 C 100.28125 28.40625 100.453125 28.777344 100.574219 28.871094 C 100.839844 29.070312 103.878906 29.09375 104.246094 28.898438 C 104.488281 28.765625 104.496094 28.53125 104.496094 19.832031 C 104.496094 11.066406 104.492188 10.890625 104.234375 10.636719 C 104.003906 10.402344 103.804688 10.378906 102.246094 10.378906 C 100.246094 10.378906 100.242188 10.378906 100.128906 11.46875 C 100.089844 11.867188 100.03125 12.191406 100.003906 12.191406 C 99.972656 12.191406 99.644531 11.960938 99.277344 11.683594 C 98.90625 11.402344 98.308594 11.03125 97.953125 10.855469 C 96.527344 10.152344 94.121094 9.851562 92.550781 10.175781 M 117.371094 10.179688 C 116.390625 10.394531 115.914062 10.628906 114.96875 11.363281 C 114.566406 11.675781 114.207031 11.929688 114.171875 11.929688 C 114.136719 11.929688 114.070312 11.675781 114.027344 11.359375 C 113.980469 11.042969 113.847656 10.710938 113.734375 10.617188 C 113.589844 10.496094 113.003906 10.429688 111.890625 10.398438 C 110.351562 10.355469 110.242188 10.367188 110.003906 10.632812 C 109.753906 10.910156 109.75 11.117188 109.789062 19.679688 C 109.8125 24.503906 109.882812 28.539062 109.945312 28.65625 C 110.160156 29.0625 110.777344 29.191406 112.253906 29.140625 C 114.386719 29.070312 114.1875 29.660156 114.238281 23.285156 C 114.277344 18.105469 114.289062 17.933594 114.570312 17.230469 C 115.0625 16.007812 115.742188 15.152344 116.535156 14.75 C 117.152344 14.4375 117.382812 14.390625 118.453125 14.390625 C 119.617188 14.390625 119.6875 14.378906 120.039062 14.027344 C 120.441406 13.625 120.652344 13.019531 120.769531 11.929688 C 120.835938 11.316406 120.804688 11.167969 120.550781 10.847656 C 119.925781 10.054688 118.914062 9.84375 117.371094 10.179688 M 73.957031 10.320312 C 73.136719 10.539062 72.414062 10.898438 71.882812 11.34375 C 71.351562 11.785156 71.25 11.761719 71.152344 11.160156 C 71.105469 10.84375 70.976562 10.589844 70.820312 10.511719 C 70.683594 10.4375 69.8125 10.378906 68.878906 10.378906 C 66.984375 10.378906 66.757812 10.46875 66.605469 11.308594 C 66.5625 11.542969 66.546875 17.226562 66.566406 23.9375 L 66.605469 36.136719 L 66.929688 36.484375 C 67.382812 36.976562 67.960938 37.191406 68.835938 37.191406 C 69.75 37.191406 70.386719 36.882812 70.75 36.269531 C 70.988281 35.863281 71.011719 35.5625 71.042969 32.011719 C 71.066406 29.910156 71.109375 28.117188 71.140625 28.023438 C 71.179688 27.910156 71.390625 27.984375 71.84375 28.261719 C 72.980469 28.960938 73.835938 29.195312 75.515625 29.261719 C 77.414062 29.339844 78.324219 29.171875 79.75 28.484375 C 80.632812 28.0625 81.050781 27.753906 81.894531 26.902344 C 83.128906 25.648438 83.859375 24.316406 84.304688 22.488281 C 84.703125 20.835938 84.710938 18.003906 84.3125 16.558594 C 83.867188 14.929688 83.085938 13.570312 81.960938 12.445312 C 80.300781 10.789062 78.558594 10.109375 76.007812 10.128906 C 75.253906 10.132812 74.332031 10.21875 73.957031 10.320312 M 156.40625 10.320312 C 155.234375 10.605469 154.289062 11.117188 153.402344 11.949219 C 152.515625 12.777344 152.148438 13.46875 152.132812 14.332031 C 152.125 15.003906 152.316406 15.347656 152.964844 15.820312 C 154.046875 16.601562 154.835938 16.503906 156.179688 15.429688 C 157.5 14.371094 157.9375 14.222656 159.511719 14.285156 C 160.492188 14.324219 160.921875 14.402344 161.386719 14.628906 C 163.238281 15.53125 164.269531 17.414062 164.265625 19.898438 C 164.265625 23.0625 162.398438 24.953125 159.292969 24.949219 C 157.988281 24.945312 157.140625 24.628906 156.402344 23.875 C 155.570312 23.019531 155.359375 22.332031 155.347656 20.480469 C 155.34375 19.589844 155.296875 18.792969 155.242188 18.707031 C 155.066406 18.4375 154.234375 18.246094 153.613281 18.328125 C 152.175781 18.527344 151.394531 19.65625 151.292969 21.6875 C 151.175781 24 151.808594 25.738281 153.304688 27.207031 C 154.789062 28.660156 156.472656 29.285156 158.902344 29.285156 C 161.09375 29.285156 162.628906 28.789062 163.632812 27.746094 C 163.917969 27.457031 164.1875 27.21875 164.230469 27.21875 C 164.277344 27.21875 164.351562 27.53125 164.402344 27.917969 C 164.527344 28.90625 164.660156 28.984375 166.382812 29.070312 C 167.855469 29.144531 168.578125 29.042969 168.769531 28.742188 C 168.828125 28.652344 168.875 24.574219 168.875 19.679688 L 168.878906 10.78125 L 168.589844 10.578125 C 168.367188 10.421875 167.9375 10.378906 166.65625 10.378906 C 164.804688 10.378906 164.617188 10.457031 164.585938 11.230469 C 164.574219 11.640625 164.527344 12.097656 164.492188 12.257812 C 164.480469 12.292969 164.105469 12.03125 163.652344 11.679688 C 162.695312 10.929688 162.039062 10.621094 160.75 10.328125 C 159.621094 10.074219 157.453125 10.066406 156.40625 10.320312 M 212.554688 10.371094 C 211.242188 10.445312 210.988281 10.589844 210.972656 11.277344 C 210.929688 12.8125 211.011719 28.441406 211.058594 28.570312 C 211.1875 28.90625 211.792969 29.03125 213.257812 29.03125 C 214.667969 29.03125 214.765625 29.015625 215.066406 28.710938 L 215.382812 28.394531 L 215.382812 19.832031 C 215.382812 12.429688 215.355469 11.21875 215.1875 10.890625 C 214.917969 10.363281 214.398438 10.261719 212.554688 10.371094 M 25.339844 10.617188 C 25.140625 10.773438 25.042969 10.980469 25.042969 11.230469 C 25.042969 11.4375 25.585938 12.804688 26.25 14.265625 C 28.558594 19.363281 31.335938 25.957031 31.726562 27.285156 C 31.964844 28.089844 31.792969 28.878906 31.089844 30.21875 C 30.292969 31.738281 29.117188 32.609375 27.371094 32.972656 C 26.921875 33.066406 26.433594 33.207031 26.289062 33.285156 C 25.804688 33.542969 25.03125 35.59375 25.222656 36.105469 C 25.363281 36.492188 25.9375 36.90625 26.546875 37.070312 C 27.199219 37.246094 28.128906 37.125 29.28125 36.710938 C 31.730469 35.832031 33.238281 34.472656 34.792969 31.753906 C 35.441406 30.617188 37.160156 26.960938 38.8125 23.199219 C 39.015625 22.738281 39.808594 20.988281 40.574219 19.316406 C 41.851562 16.511719 42.925781 14.105469 43.6875 12.320312 C 44.023438 11.542969 44.089844 10.777344 43.84375 10.53125 C 43.628906 10.316406 40.421875 10.324219 39.984375 10.542969 C 39.625 10.71875 39.035156 11.820312 38.160156 13.9375 L 36.875 17.050781 C 36.03125 19.09375 35.398438 20.570312 34.867188 21.710938 L 34.507812 22.488281 L 34.023438 21.453125 C 33.542969 20.421875 32.28125 17.390625 30.550781 13.117188 C 30.050781 11.882812 29.539062 10.761719 29.417969 10.625 C 29.214844 10.40625 29 10.378906 27.414062 10.378906 C 25.878906 10.378906 25.59375 10.410156 25.339844 10.617188 M 131.371094 11 C 130.757812 11.289062 130.535156 11.707031 130.4375 12.726562 C 130.347656 13.726562 130.585938 14.609375 131.15625 15.371094 C 131.960938 16.441406 132.214844 16.511719 135.519531 16.566406 C 138.589844 16.617188 138.996094 16.683594 140.414062 17.394531 C 141.414062 17.894531 142.128906 18.636719 142.625 19.683594 C 143.003906 20.480469 143.035156 20.648438 143.035156 21.90625 C 143.03125 23.097656 142.992188 23.355469 142.695312 23.980469 C 142.261719 24.90625 141.789062 25.457031 141.042969 25.890625 C 140.460938 26.234375 140.371094 26.246094 137.980469 26.3125 C 135.625 26.378906 131.402344 26.292969 127.675781 26.105469 C 125.109375 25.976562 124.621094 26.210938 124.304688 27.710938 C 124.132812 28.523438 124.308594 31.257812 124.566406 31.734375 C 124.640625 31.871094 124.902344 32.113281 125.152344 32.265625 L 125.601562 32.546875 L 133.476562 32.496094 C 140.207031 32.453125 141.449219 32.414062 142.035156 32.238281 C 144.894531 31.375 147.261719 29.21875 148.179688 26.632812 C 148.691406 25.203125 148.867188 24.0625 148.851562 22.230469 C 148.835938 20.1875 148.542969 18.890625 147.714844 17.175781 C 147.023438 15.746094 146.210938 14.652344 145.144531 13.71875 C 143.40625 12.203125 142.160156 11.511719 140.378906 11.082031 C 139.585938 10.890625 138.722656 10.839844 135.652344 10.800781 C 132.195312 10.761719 131.851562 10.777344 131.371094 11 M 74.925781 14.394531 C 73.496094 14.644531 72.285156 15.652344 71.5625 17.195312 C 71.238281 17.898438 71.152344 18.261719 71.105469 19.25 C 71.003906 21.195312 71.464844 22.566406 72.605469 23.710938 C 73.578125 24.679688 74.269531 24.953125 75.738281 24.945312 C 77.214844 24.9375 77.914062 24.660156 78.882812 23.691406 C 79.992188 22.589844 80.480469 21.097656 80.367188 19.164062 C 80.320312 18.269531 80.222656 17.867188 79.910156 17.191406 C 78.9375 15.121094 77 14.03125 74.925781 14.394531 M 10.476562 21.28125 L 10.511719 24.429688 L 13.597656 24.46875 C 15.515625 24.488281 16.882812 24.449219 17.207031 24.363281 C 17.976562 24.152344 18.804688 23.265625 19.0625 22.375 C 19.40625 21.191406 19.050781 19.84375 18.207031 19.128906 C 17.15625 18.246094 17.03125 18.21875 13.585938 18.171875 L 10.445312 18.128906 Z M 125.804688 38.863281 L 125.15625 38.941406 L 125.15625 43.476562 L 126.121094 43.511719 C 127.808594 43.582031 128.503906 42.972656 126.96875 42.769531 C 126.5 42.703125 126.453125 42.664062 126.453125 42.320312 C 126.453125 41.996094 126.511719 41.933594 126.84375 41.890625 C 127.3125 41.828125 127.378906 41.765625 127.496094 41.292969 L 127.585938 40.929688 L 126.390625 41.109375 L 126.390625 40.542969 C 126.390625 39.808594 126.476562 39.703125 127.125 39.59375 C 127.511719 39.53125 127.699219 39.425781 127.753906 39.246094 C 127.800781 39.101562 127.816406 38.96875 127.792969 38.949219 C 127.675781 38.851562 126.382812 38.796875 125.804688 38.863281 M 92.132812 39.101562 C 92.191406 39.230469 92.277344 40.261719 92.324219 41.402344 C 92.378906 42.542969 92.425781 43.488281 92.433594 43.507812 C 92.441406 43.523438 92.566406 43.542969 92.707031 43.542969 C 92.953125 43.542969 92.964844 43.453125 92.964844 42.039062 C 92.964844 41.117188 93.015625 40.554688 93.09375 40.582031 C 93.164062 40.605469 93.585938 41.269531 94.035156 42.050781 L 94.851562 43.476562 L 96.113281 43.476562 L 96.085938 41.410156 C 96.070312 40.273438 96.027344 39.296875 95.996094 39.238281 C 95.960938 39.179688 95.816406 39.136719 95.679688 39.136719 C 95.445312 39.136719 95.425781 39.234375 95.425781 40.527344 C 95.425781 42.039062 95.347656 42.539062 95.121094 42.472656 C 94.886719 42.402344 94.160156 40.808594 94.066406 40.171875 C 94.019531 39.851562 93.949219 39.480469 93.914062 39.34375 C 93.796875 38.921875 93.636719 39.378906 93.710938 39.929688 C 93.75 40.207031 93.738281 40.429688 93.6875 40.429688 C 93.527344 40.429688 92.984375 39.71875 92.898438 39.394531 C 92.804688 39.03125 92.625 38.878906 92.273438 38.878906 C 92.089844 38.878906 92.058594 38.933594 92.132812 39.101562 M 117.964844 38.921875 C 117.929688 38.957031 117.921875 39.984375 117.941406 41.207031 L 117.980469 43.425781 L 118.328125 43.386719 L 118.679688 43.347656 L 118.679688 38.941406 L 118.351562 38.902344 C 118.171875 38.882812 117.996094 38.890625 117.964844 38.921875 M 129.871094 39.171875 C 129.304688 39.554688 129.03125 40.097656 129.214844 40.488281 C 129.285156 40.652344 129.609375 40.949219 129.9375 41.15625 C 130.265625 41.363281 130.535156 41.574219 130.535156 41.625 C 130.535156 41.679688 130.296875 41.839844 130.007812 41.988281 C 129.71875 42.136719 129.453125 42.34375 129.410156 42.449219 C 129.203125 42.992188 130.808594 43.777344 131.757812 43.597656 C 132.308594 43.492188 132.992188 42.894531 132.992188 42.523438 C 132.992188 42.085938 132.476562 41.628906 131.246094 40.980469 C 130.019531 40.332031 129.824219 40.078125 130.21875 39.644531 C 130.585938 39.238281 131.027344 39.335938 131.714844 39.976562 C 132.605469 40.8125 132.933594 40.699219 132.3125 39.769531 C 131.734375 38.90625 130.660156 38.644531 129.871094 39.171875 M 41.503906 39.1875 C 41.40625 39.289062 41.128906 40.0625 40.894531 40.90625 C 40.65625 41.75 40.417969 42.492188 40.363281 42.550781 C 40.269531 42.660156 40.140625 42.289062 39.503906 40.042969 C 39.304688 39.339844 39.214844 39.195312 38.957031 39.15625 C 38.691406 39.117188 38.664062 39.152344 38.738281 39.417969 C 38.78125 39.582031 39.003906 40.449219 39.226562 41.339844 C 39.667969 43.105469 39.859375 43.445312 40.367188 43.382812 C 40.78125 43.335938 41.019531 42.871094 41.496094 41.175781 C 41.691406 40.476562 41.890625 39.984375 41.9375 40.074219 C 41.988281 40.164062 42.183594 40.820312 42.371094 41.535156 C 42.8125 43.210938 42.902344 43.410156 43.214844 43.410156 C 43.359375 43.410156 43.5625 43.28125 43.667969 43.121094 C 43.941406 42.699219 44.621094 40.550781 44.722656 39.785156 C 44.804688 39.1875 44.789062 39.136719 44.542969 39.136719 C 44.257812 39.136719 44.25 39.140625 43.941406 40.496094 C 43.574219 42.105469 43.445312 42.519531 43.351562 42.414062 C 43.230469 42.273438 42.445312 39.734375 42.445312 39.476562 C 42.445312 39.28125 42.078125 39.007812 41.816406 39.007812 C 41.742188 39.007812 41.605469 39.085938 41.503906 39.1875 M 114.78125 39.191406 C 114.054688 39.507812 113.59375 40.417969 113.921875 40.890625 C 114.105469 41.160156 114.660156 41.46875 114.957031 41.46875 C 115.125 41.46875 115.433594 41.558594 115.644531 41.667969 C 115.933594 41.816406 116.023438 41.953125 116.023438 42.238281 C 116.023438 42.761719 115.71875 43.023438 115.097656 43.023438 C 114.683594 43.023438 114.5 42.941406 114.210938 42.632812 C 114.011719 42.417969 113.8125 42.246094 113.769531 42.246094 C 113.5625 42.246094 113.730469 42.8125 114.027344 43.105469 C 114.332031 43.414062 114.429688 43.433594 115.257812 43.386719 C 116.019531 43.34375 116.210938 43.285156 116.5 42.992188 C 116.917969 42.578125 116.960938 41.957031 116.597656 41.59375 C 116.457031 41.453125 115.9375 41.210938 115.441406 41.046875 C 114.648438 40.792969 114.53125 40.714844 114.496094 40.414062 C 114.46875 40.167969 114.554688 39.996094 114.804688 39.796875 C 115.246094 39.449219 115.402344 39.453125 115.855469 39.828125 C 116.53125 40.386719 116.921875 40.359375 116.734375 39.769531 C 116.648438 39.507812 115.757812 39.007812 115.378906 39.011719 C 115.269531 39.015625 115.003906 39.09375 114.78125 39.191406 M 120.222656 39.160156 C 120.082031 39.386719 119.988281 43.410156 120.121094 43.414062 C 120.183594 43.414062 120.367188 43.449219 120.527344 43.492188 C 120.796875 43.566406 120.820312 43.527344 120.820312 43.003906 C 120.820312 42.039062 120.980469 40.300781 121.070312 40.300781 C 121.117188 40.300781 121.230469 40.519531 121.324219 40.785156 C 121.414062 41.054688 121.71875 41.753906 122 42.339844 C 122.515625 43.425781 122.761719 43.632812 123.367188 43.515625 C 123.621094 43.46875 123.6875 43.019531 123.835938 40.269531 L 123.90625 39.007812 L 123.542969 39.007812 C 123.117188 39.007812 123.078125 39.105469 122.949219 40.660156 C 122.898438 41.246094 122.804688 41.726562 122.742188 41.726562 C 122.679688 41.726562 122.339844 41.113281 121.988281 40.367188 L 121.355469 39.007812 L 120.835938 39.007812 C 120.546875 39.007812 120.273438 39.074219 120.222656 39.160156 M 134.894531 39.394531 C 134.53125 39.828125 133.988281 41.164062 134.101562 41.347656 C 134.230469 41.554688 134.421875 41.476562 134.421875 41.214844 C 134.421875 40.804688 134.644531 40.785156 135.386719 41.125 C 135.785156 41.308594 136.21875 41.417969 136.390625 41.382812 C 136.574219 41.339844 136.628906 41.359375 136.53125 41.425781 C 136.421875 41.503906 136.492188 41.589844 136.757812 41.707031 C 137.214844 41.914062 137.234375 42.058594 136.847656 42.496094 L 136.558594 42.828125 L 136.917969 42.507812 C 137.554688 41.949219 137.222656 41.347656 136.097656 41.019531 C 135.921875 40.96875 135.539062 40.839844 135.242188 40.730469 C 134.726562 40.542969 134.710938 40.519531 134.816406 40.140625 C 134.960938 39.636719 135.300781 39.265625 135.613281 39.265625 C 135.75 39.265625 135.824219 39.207031 135.78125 39.136719 C 135.628906 38.890625 135.21875 39.007812 134.894531 39.394531 M 199.558594 39.09375 C 199.320312 39.15625 199.226562 39.90625 199.160156 42.242188 C 199.128906 43.355469 199.148438 43.472656 199.371094 43.515625 C 199.757812 43.59375 199.835938 43.308594 199.835938 41.757812 C 199.839844 40.898438 199.890625 40.300781 199.964844 40.300781 C 200.117188 40.300781 200.390625 40.820312 200.617188 41.535156 C 201.367188 43.898438 201.535156 43.957031 202.28125 42.082031 C 203.222656 39.71875 203.132812 39.753906 203.207031 41.726562 C 203.269531 43.417969 203.28125 43.476562 203.5625 43.515625 C 203.882812 43.5625 203.886719 43.546875 203.894531 40.367188 L 203.894531 39.199219 L 202.921875 39.199219 L 202.410156 40.496094 C 202.128906 41.207031 201.839844 41.847656 201.765625 41.917969 C 201.605469 42.078125 201.503906 41.910156 200.84375 40.429688 C 200.410156 39.453125 200.070312 38.976562 199.847656 39.019531 C 199.804688 39.03125 199.675781 39.0625 199.558594 39.09375 M 6.039062 39.265625 C 5.894531 39.355469 5.820312 43.226562 5.957031 43.367188 C 6.015625 43.425781 6.570312 43.476562 7.1875 43.476562 C 8.253906 43.476562 8.3125 43.460938 8.351562 43.183594 C 8.390625 42.90625 8.351562 42.890625 7.484375 42.890625 C 6.984375 42.890625 6.539062 42.832031 6.496094 42.757812 C 6.449219 42.683594 6.449219 42.394531 6.496094 42.117188 C 6.582031 41.613281 6.582031 41.609375 7.25 41.570312 C 7.757812 41.539062 7.929688 41.480469 7.960938 41.3125 C 7.996094 41.128906 7.875 41.085938 7.25 41.050781 L 6.496094 41.015625 L 6.453125 40.503906 C 6.398438 39.832031 6.644531 39.652344 7.632812 39.652344 C 8.289062 39.652344 8.390625 39.621094 8.351562 39.429688 C 8.3125 39.234375 8.152344 39.199219 7.226562 39.199219 C 6.632812 39.199219 6.097656 39.230469 6.039062 39.265625 M 9.628906 39.222656 C 9.582031 39.269531 9.539062 40.261719 9.539062 41.429688 C 9.539062 43.234375 9.570312 43.558594 9.746094 43.625 C 10.046875 43.742188 10.199219 43.511719 10.242188 42.878906 C 10.261719 42.566406 10.289062 42.179688 10.300781 42.015625 C 10.316406 41.773438 10.394531 41.726562 10.765625 41.726562 C 11.183594 41.726562 11.230469 41.773438 11.554688 42.496094 C 11.941406 43.359375 12.285156 43.738281 12.578125 43.625 C 12.738281 43.566406 12.691406 43.390625 12.316406 42.625 L 11.855469 41.695312 L 12.128906 41.40625 C 12.710938 40.785156 12.394531 39.46875 11.601562 39.246094 C 11.1875 39.132812 9.738281 39.113281 9.628906 39.222656 M 13.773438 39.222656 C 13.726562 39.269531 13.6875 40.265625 13.6875 41.433594 L 13.6875 43.558594 L 13.980469 43.515625 C 14.261719 43.476562 14.269531 43.425781 14.304688 41.824219 C 14.328125 40.820312 14.394531 40.171875 14.472656 40.171875 C 14.601562 40.171875 15.015625 41.023438 15.636719 42.570312 C 16.101562 43.71875 16.324219 43.820312 16.542969 42.988281 C 16.753906 42.199219 17.582031 40.300781 17.71875 40.300781 C 17.78125 40.300781 17.839844 40.898438 17.84375 41.628906 C 17.863281 43.5 17.863281 43.476562 18.15625 43.476562 C 18.375 43.476562 18.421875 43.375 18.460938 42.828125 C 18.484375 42.472656 18.460938 41.523438 18.414062 40.722656 L 18.324219 39.265625 L 17.902344 39.265625 C 17.511719 39.265625 17.453125 39.324219 17.144531 40.007812 C 16.964844 40.417969 16.707031 41.042969 16.578125 41.390625 C 16.449219 41.742188 16.277344 42.050781 16.199219 42.074219 C 16.117188 42.105469 15.804688 41.535156 15.496094 40.792969 C 15.191406 40.058594 14.882812 39.386719 14.816406 39.296875 C 14.683594 39.128906 13.921875 39.074219 13.773438 39.222656 M 22.007812 39.328125 C 21.300781 39.636719 21.105469 40.605469 21.636719 41.140625 C 21.804688 41.308594 22.253906 41.539062 22.632812 41.652344 C 23.835938 42.007812 24.152344 42.59375 23.351562 42.976562 C 22.839844 43.222656 22.332031 43.136719 22.007812 42.757812 C 21.789062 42.5 21.332031 42.40625 21.332031 42.621094 C 21.332031 42.828125 22.089844 43.382812 22.492188 43.476562 C 22.929688 43.570312 23.734375 43.355469 24.082031 43.050781 C 24.226562 42.925781 24.308594 42.667969 24.308594 42.355469 C 24.308594 41.777344 24.109375 41.605469 22.957031 41.210938 C 21.980469 40.875 21.8125 40.730469 21.910156 40.308594 C 22.015625 39.882812 22.320312 39.652344 22.789062 39.652344 C 23.265625 39.652344 23.589844 39.832031 24.058594 40.34375 L 24.429688 40.753906 L 24.4375 40.359375 C 24.441406 39.855469 24.0625 39.445312 23.433594 39.273438 C 22.800781 39.097656 22.519531 39.105469 22.007812 39.328125 M 26.566406 39.261719 C 26.210938 39.40625 25.625 40.109375 25.523438 40.511719 C 25.480469 40.683594 25.46875 41.179688 25.5 41.609375 C 25.550781 42.292969 25.613281 42.445312 26.027344 42.855469 C 26.421875 43.253906 26.597656 43.332031 27.183594 43.375 C 28.476562 43.472656 29.363281 42.660156 29.363281 41.371094 C 29.363281 40.480469 28.996094 39.785156 28.324219 39.410156 C 27.824219 39.128906 27.054688 39.0625 26.566406 39.261719 M 30.527344 41.003906 C 30.527344 42.03125 30.5625 42.960938 30.605469 43.078125 C 30.652344 43.195312 30.835938 43.28125 31.042969 43.28125 L 31.402344 43.28125 L 31.269531 41.46875 L 32.128906 41.46875 C 32.792969 41.46875 32.988281 41.425781 32.988281 41.28125 C 32.988281 41.140625 32.78125 41.082031 32.179688 41.050781 L 31.371094 41.015625 L 31.371094 39.71875 L 32.242188 39.644531 C 33.160156 39.5625 33.328125 39.5 33.1875 39.273438 C 33.136719 39.191406 32.589844 39.136719 31.816406 39.136719 L 30.527344 39.136719 Z M 34.054688 39.296875 C 34.089844 39.394531 34.429688 39.488281 34.875 39.523438 L 35.644531 39.589844 L 35.707031 41.425781 C 35.742188 42.433594 35.816406 43.300781 35.863281 43.351562 C 36.0625 43.546875 36.320312 43.28125 36.398438 42.804688 C 36.445312 42.535156 36.484375 41.71875 36.484375 40.996094 C 36.484375 39.550781 36.5 39.523438 37.339844 39.523438 C 37.648438 39.523438 37.78125 39.464844 37.78125 39.332031 C 37.78125 39.164062 37.484375 39.136719 35.894531 39.136719 C 34.441406 39.136719 34.015625 39.171875 34.054688 39.296875 M 46.710938 40.203125 C 46.152344 41.652344 45.683594 43.03125 45.683594 43.238281 C 45.683594 43.332031 45.800781 43.410156 45.941406 43.410156 C 46.121094 43.410156 46.285156 43.222656 46.492188 42.792969 L 46.785156 42.179688 L 47.574219 42.140625 C 48.457031 42.101562 48.558594 42.167969 48.839844 42.96875 C 49.011719 43.46875 49.347656 43.683594 49.589844 43.445312 C 49.722656 43.308594 49.074219 41.425781 48.40625 40.007812 C 48.015625 39.1875 47.964844 39.136719 47.558594 39.136719 C 47.140625 39.136719 47.117188 39.164062 46.710938 40.203125 M 50.824219 39.222656 C 50.714844 39.332031 50.707031 42.925781 50.8125 43.203125 C 50.859375 43.316406 51 43.410156 51.132812 43.410156 C 51.335938 43.410156 51.378906 43.285156 51.410156 42.535156 L 51.449219 41.660156 L 51.902344 41.660156 C 52.332031 41.660156 52.375 41.707031 52.753906 42.484375 C 53.15625 43.324219 53.457031 43.617188 53.785156 43.492188 C 53.925781 43.4375 53.863281 43.222656 53.496094 42.507812 L 53.027344 41.59375 L 53.292969 41.304688 C 53.742188 40.820312 53.726562 39.914062 53.265625 39.453125 C 52.984375 39.167969 52.839844 39.136719 51.929688 39.136719 C 51.367188 39.136719 50.871094 39.175781 50.824219 39.222656 M 54.902344 41.203125 C 54.929688 42.335938 54.996094 43.308594 55.050781 43.363281 C 55.15625 43.46875 57.324219 43.4375 57.5 43.328125 C 57.554688 43.292969 57.601562 43.183594 57.601562 43.082031 C 57.601562 42.949219 57.363281 42.894531 56.660156 42.867188 L 55.722656 42.828125 L 55.683594 42.136719 L 55.644531 41.449219 L 56.363281 41.535156 C 56.964844 41.613281 57.09375 41.59375 57.164062 41.414062 C 57.28125 41.101562 57.175781 41.046875 56.410156 41.027344 L 55.722656 41.015625 L 55.722656 39.71875 L 56.46875 39.679688 C 56.980469 39.652344 57.210938 39.585938 57.210938 39.46875 C 57.210938 39.253906 56.640625 39.136719 55.628906 39.136719 L 54.851562 39.136719 Z M 67.859375 39.351562 C 67.285156 39.636719 66.929688 40.363281 66.929688 41.25 C 66.929688 42.195312 67.109375 42.640625 67.636719 43 C 68.390625 43.515625 69.777344 43.492188 69.777344 42.960938 C 69.777344 42.800781 69.644531 42.78125 69.011719 42.847656 C 68.289062 42.921875 68.222656 42.90625 67.910156 42.566406 C 67.601562 42.234375 67.503906 41.835938 67.554688 41.144531 C 67.632812 40.144531 68.035156 39.753906 68.925781 39.800781 C 69.632812 39.839844 69.867188 39.617188 69.445312 39.308594 C 69.125 39.074219 68.382812 39.097656 67.859375 39.351562 M 71.449219 39.429688 C 70.863281 39.820312 70.554688 40.464844 70.554688 41.308594 C 70.554688 42.195312 70.828125 42.824219 71.347656 43.140625 C 72.246094 43.6875 73.167969 43.578125 73.964844 42.824219 C 74.425781 42.386719 74.570312 42 74.570312 41.21875 C 74.570312 39.628906 72.734375 38.574219 71.449219 39.429688 M 79.855469 39.429688 C 79.753906 39.585938 79.632812 39.820312 79.585938 39.945312 C 79.414062 40.417969 78.578125 41.605469 78.46875 41.539062 C 78.40625 41.5 78.136719 41.003906 77.867188 40.429688 C 77.433594 39.507812 77.339844 39.394531 77.027344 39.394531 C 76.835938 39.394531 76.503906 39.359375 76.292969 39.316406 L 75.90625 39.242188 L 75.820312 41.179688 C 75.730469 43.226562 75.773438 43.578125 76.109375 43.511719 C 76.375 43.460938 76.496094 42.777344 76.507812 41.242188 C 76.519531 39.476562 76.84375 39.679688 77.546875 41.882812 C 77.769531 42.578125 78.015625 43.183594 78.09375 43.234375 C 78.308594 43.363281 78.734375 42.769531 79.511719 41.25 C 80.011719 40.277344 80.226562 39.964844 80.304688 40.105469 C 80.363281 40.210938 80.394531 40.984375 80.375 41.824219 L 80.335938 43.347656 L 81.179688 43.425781 L 81.179688 41.574219 C 81.179688 40.550781 81.21875 39.585938 81.257812 39.429688 C 81.332031 39.152344 81.300781 39.136719 80.691406 39.136719 C 80.160156 39.136719 80.007812 39.1875 79.855469 39.429688 M 89.210938 39.277344 C 89.210938 39.351562 89.402344 39.746094 89.640625 40.152344 C 90.101562 40.9375 90.707031 42.433594 90.84375 43.121094 C 90.902344 43.414062 91 43.542969 91.167969 43.542969 C 91.371094 43.542969 91.398438 43.464844 91.34375 42.988281 C 91.304688 42.6875 91.226562 41.984375 91.160156 41.429688 C 91.058594 40.539062 90.996094 40.363281 90.613281 39.964844 C 89.984375 39.304688 89.210938 38.925781 89.210938 39.277344 M 91.28125 39.273438 C 91.28125 39.347656 91.339844 39.375 91.414062 39.332031 C 91.484375 39.285156 91.542969 39.222656 91.542969 39.195312 C 91.542969 39.160156 91.484375 39.136719 91.414062 39.136719 C 91.339844 39.136719 91.28125 39.199219 91.28125 39.273438 M 97.300781 39.300781 C 97.265625 39.394531 97.25 40.371094 97.269531 41.472656 L 97.304688 43.476562 L 98.503906 43.511719 C 99.636719 43.546875 99.703125 43.535156 99.703125 43.285156 C 99.703125 43.140625 99.628906 43.015625 99.539062 43.011719 L 98.988281 42.964844 C 98.761719 42.945312 98.53125 42.929688 98.300781 42.914062 C 98.03125 42.894531 98.007812 42.839844 98.042969 42.277344 L 98.085938 41.660156 L 98.730469 41.660156 C 99.21875 41.660156 99.378906 41.613281 99.378906 41.46875 C 99.378906 41.328125 99.203125 41.261719 98.734375 41.230469 C 98.035156 41.191406 97.894531 41.070312 97.890625 40.539062 C 97.886719 39.898438 98 39.785156 98.65625 39.785156 C 98.988281 39.785156 99.332031 39.851562 99.417969 39.9375 C 99.539062 40.058594 99.609375 40.058594 99.726562 39.941406 C 99.84375 39.824219 99.773438 39.746094 99.433594 39.605469 C 99.191406 39.5 98.757812 39.378906 98.472656 39.332031 C 98.1875 39.289062 97.820312 39.222656 97.660156 39.1875 C 97.488281 39.15625 97.335938 39.199219 97.300781 39.300781 M 104.511719 39.390625 C 104.46875 39.5 104.429688 40.429688 104.429688 41.453125 L 104.429688 43.324219 L 104.753906 43.359375 C 104.933594 43.378906 105.351562 43.433594 105.6875 43.480469 C 106.449219 43.597656 106.828125 43.5 107.335938 43.074219 C 107.65625 42.804688 107.734375 42.636719 107.734375 42.238281 C 107.734375 41.964844 107.667969 41.589844 107.582031 41.40625 C 107.46875 41.148438 107.46875 41.007812 107.601562 40.761719 C 107.820312 40.351562 107.597656 39.765625 107.105469 39.441406 C 106.636719 39.132812 104.636719 39.09375 104.511719 39.390625 M 108.867188 39.234375 C 108.839844 39.285156 108.851562 40.050781 108.890625 40.925781 L 108.964844 42.523438 L 109.449219 42.96875 C 109.867188 43.347656 110.023438 43.410156 110.585938 43.410156 C 111.488281 43.410156 112.230469 43.015625 112.488281 42.398438 C 112.648438 42.027344 112.671875 41.640625 112.613281 40.636719 C 112.53125 39.265625 112.4375 39.027344 112.0625 39.238281 C 111.859375 39.351562 111.835938 39.542969 111.867188 40.820312 C 111.898438 42.171875 111.878906 42.292969 111.609375 42.582031 C 111.210938 43.003906 110.429688 43.011719 110.011719 42.59375 C 109.753906 42.332031 109.703125 42.113281 109.625 40.941406 C 109.574219 40.199219 109.503906 39.488281 109.46875 39.363281 C 109.402344 39.140625 108.960938 39.042969 108.867188 39.234375 M 140.4375 39.300781 C 140.398438 39.394531 140.386719 40.371094 140.40625 41.472656 C 140.4375 43.148438 140.476562 43.476562 140.636719 43.476562 C 140.785156 43.476562 140.839844 43.277344 140.871094 42.636719 C 140.933594 41.304688 141.246094 41.308594 142.144531 42.65625 C 142.722656 43.527344 143.015625 43.796875 143.191406 43.621094 C 143.238281 43.570312 143.082031 43.128906 142.839844 42.632812 L 142.402344 41.730469 L 142.691406 41.425781 C 143.390625 40.679688 143.246094 39.679688 142.382812 39.320312 C 141.820312 39.085938 140.523438 39.074219 140.4375 39.300781 M 144.332031 41.214844 C 144.265625 42.578125 144.28125 43.347656 144.367188 43.433594 C 144.453125 43.519531 144.9375 43.527344 145.773438 43.457031 C 146.925781 43.355469 147.050781 43.320312 147.050781 43.089844 C 147.050781 42.847656 146.976562 42.832031 146.125 42.871094 C 145.523438 42.898438 145.167969 42.863281 145.109375 42.761719 C 145.058594 42.683594 145.054688 42.347656 145.101562 42.023438 L 145.195312 41.4375 L 145.734375 41.507812 C 146.328125 41.589844 146.660156 41.464844 146.570312 41.195312 C 146.53125 41.078125 146.320312 41.035156 145.890625 41.0625 C 145.195312 41.105469 145.046875 40.984375 145.046875 40.367188 C 145.046875 39.726562 145.164062 39.65625 146.152344 39.6875 C 146.972656 39.714844 147.050781 39.695312 147.050781 39.457031 C 147.050781 39.21875 146.953125 39.199219 145.738281 39.164062 L 144.425781 39.128906 Z M 149.058594 39.375 C 148.445312 39.707031 148.136719 40.164062 148.058594 40.863281 C 147.953125 41.789062 148.113281 42.320312 148.671875 42.910156 C 149.167969 43.433594 149.195312 43.441406 149.894531 43.382812 C 150.558594 43.328125 151.132812 43.035156 151.132812 42.742188 C 151.132812 42.589844 150.644531 42.605469 150.546875 42.761719 C 150.390625 43.015625 149.507812 42.910156 149.21875 42.601562 C 148.660156 42.003906 148.503906 40.996094 148.867188 40.296875 C 149.207031 39.640625 149.882812 39.472656 150.632812 39.855469 C 151.078125 40.089844 151.191406 40.042969 151.074219 39.675781 C 150.90625 39.152344 149.789062 38.984375 149.058594 39.375 M 153 39.398438 C 151.730469 40.023438 151.5 42 152.574219 42.972656 C 154.304688 44.53125 156.738281 42.289062 155.625 40.160156 C 155.113281 39.179688 154.058594 38.875 153 39.398438 M 157.214844 39.21875 C 157.210938 39.28125 157.179688 40.105469 157.136719 41.050781 C 157.050781 43.085938 157.109375 43.445312 157.515625 43.386719 C 157.777344 43.347656 157.804688 43.265625 157.839844 42.40625 C 157.875 41.609375 157.914062 41.46875 158.105469 41.46875 C 158.5 41.46875 158.765625 41.761719 159.085938 42.558594 C 159.414062 43.363281 159.640625 43.59375 159.933594 43.414062 C 160.074219 43.328125 160.023438 43.132812 159.683594 42.425781 C 159.40625 41.851562 159.308594 41.527344 159.40625 41.492188 C 160.109375 41.261719 160.261719 40.207031 159.695312 39.507812 C 159.472656 39.234375 159.316406 39.195312 158.332031 39.15625 C 157.71875 39.128906 157.21875 39.15625 157.214844 39.21875 M 161.527344 39.210938 C 161.28125 39.328125 161.296875 43.355469 161.542969 43.449219 C 161.890625 43.585938 163.1875 43.425781 163.660156 43.195312 C 164.339844 42.859375 164.664062 42.234375 164.664062 41.273438 C 164.664062 40.359375 164.339844 39.6875 163.761719 39.410156 C 163.375 39.21875 161.8125 39.085938 161.527344 39.210938 M 166.675781 39.226562 C 165.839844 39.53125 165.640625 40.453125 166.296875 41.003906 C 166.515625 41.1875 166.765625 41.339844 166.851562 41.339844 C 166.933594 41.339844 167.222656 41.484375 167.488281 41.667969 C 168.019531 42.027344 168.125 42.460938 167.769531 42.816406 C 167.4375 43.148438 166.902344 43.070312 166.523438 42.632812 C 166.1875 42.25 165.769531 42.207031 165.769531 42.558594 C 165.769531 42.796875 166.257812 43.269531 166.582031 43.34375 C 167.414062 43.539062 167.886719 43.464844 168.351562 43.074219 C 169.144531 42.40625 168.757812 41.488281 167.484375 41.015625 C 167.148438 40.886719 166.796875 40.726562 166.710938 40.65625 C 166.4375 40.441406 166.523438 39.933594 166.863281 39.710938 C 167.265625 39.449219 167.644531 39.554688 168.199219 40.082031 C 168.496094 40.363281 168.660156 40.441406 168.753906 40.34375 C 168.992188 40.109375 168.308594 39.445312 167.65625 39.28125 C 167.03125 39.125 166.96875 39.121094 166.675781 39.226562 M 179.503906 39.273438 C 178.730469 39.597656 178.316406 40.285156 178.308594 41.257812 C 178.296875 42.683594 179.078125 43.511719 180.300781 43.367188 C 180.988281 43.285156 181.316406 43.105469 181.316406 42.8125 C 181.316406 42.570312 180.902344 42.585938 180.351562 42.847656 C 179.980469 43.027344 179.832031 43.039062 179.5625 42.914062 C 178.964844 42.644531 178.671875 41.449219 178.992188 40.601562 C 179.324219 39.722656 180 39.4375 180.789062 39.84375 C 181.101562 40.007812 181.171875 40.007812 181.226562 39.855469 C 181.421875 39.351562 180.257812 38.957031 179.503906 39.273438 M 185.042969 40.839844 C 184.976562 42.726562 184.898438 42.890625 184.101562 42.890625 C 183.289062 42.890625 183.195312 42.707031 183.148438 40.886719 C 183.101562 39.300781 183.09375 39.253906 182.824219 39.289062 C 182.558594 39.328125 182.542969 39.40625 182.507812 40.902344 C 182.472656 42.425781 182.484375 42.484375 182.804688 42.871094 C 183.726562 43.964844 185.296875 43.535156 185.523438 42.128906 C 185.660156 41.300781 185.476562 39.136719 185.269531 39.136719 C 185.148438 39.136719 185.089844 39.578125 185.042969 40.839844 M 187.402344 39.355469 C 187.0625 39.53125 186.917969 39.710938 186.828125 40.074219 C 186.679688 40.683594 186.910156 40.972656 187.953125 41.472656 C 188.867188 41.902344 189.089844 42.082031 189.089844 42.371094 C 189.089844 43.023438 188.035156 43.234375 187.453125 42.695312 C 187.074219 42.347656 186.820312 42.289062 186.675781 42.523438 C 186.542969 42.742188 187.183594 43.246094 187.804688 43.414062 C 189.023438 43.742188 190.195312 42.664062 189.566406 41.804688 C 189.472656 41.675781 188.992188 41.359375 188.496094 41.097656 C 187.746094 40.703125 187.589844 40.566406 187.558594 40.261719 C 187.464844 39.484375 188.109375 39.300781 188.960938 39.867188 C 189.488281 40.214844 189.699219 40.210938 189.5625 39.863281 C 189.339844 39.285156 188.109375 38.996094 187.402344 39.355469 M 190.570312 39.273438 C 190.4375 39.488281 190.621094 39.589844 191.140625 39.589844 L 191.613281 39.589844 L 191.695312 40.429688 C 191.742188 40.894531 191.785156 41.753906 191.792969 42.339844 C 191.804688 43.3125 191.832031 43.410156 192.0625 43.410156 C 192.304688 43.410156 192.320312 43.304688 192.355469 41.5 L 192.390625 39.589844 L 192.941406 39.550781 C 193.316406 39.523438 193.492188 39.449219 193.492188 39.320312 C 193.492188 39.171875 193.222656 39.136719 192.074219 39.136719 C 191.210938 39.136719 190.625 39.1875 190.570312 39.273438 M 195.3125 39.363281 C 194.648438 39.703125 194.359375 40.183594 194.300781 41.042969 C 194.179688 42.867188 195.765625 44.027344 197.179688 43.15625 C 197.894531 42.714844 198.078125 42.339844 198.078125 41.347656 C 198.078125 39.957031 197.386719 39.136719 196.210938 39.136719 C 195.964844 39.136719 195.558594 39.238281 195.3125 39.363281 M 205.238281 39.222656 C 205.1875 39.269531 205.148438 40.226562 205.148438 41.347656 C 205.148438 43.101562 205.179688 43.394531 205.359375 43.464844 C 205.472656 43.507812 206.027344 43.503906 206.589844 43.457031 C 207.457031 43.386719 207.613281 43.335938 207.613281 43.136719 C 207.613281 42.9375 207.480469 42.898438 206.738281 42.867188 L 205.863281 42.828125 L 205.863281 41.402344 L 206.382812 41.390625 C 207.214844 41.371094 207.351562 41.347656 207.351562 41.207031 C 207.351562 41.136719 207.003906 41.078125 206.570312 41.078125 L 205.785156 41.078125 L 205.824219 40.464844 L 205.863281 39.847656 L 206.703125 39.785156 C 207.457031 39.722656 207.550781 39.6875 207.589844 39.429688 C 207.628906 39.144531 207.597656 39.136719 206.476562 39.136719 C 205.839844 39.136719 205.285156 39.175781 205.238281 39.222656 M 208.835938 39.300781 C 208.800781 39.394531 208.785156 40.371094 208.808594 41.472656 C 208.84375 43.4375 208.847656 43.476562 209.132812 43.515625 C 209.410156 43.554688 209.425781 43.515625 209.425781 42.644531 L 209.425781 41.726562 L 209.882812 41.726562 C 210.320312 41.726562 210.359375 41.761719 210.710938 42.550781 C 211.089844 43.390625 211.441406 43.707031 211.585938 43.332031 C 211.628906 43.21875 211.496094 42.777344 211.292969 42.347656 L 210.917969 41.570312 L 211.21875 41.328125 C 211.578125 41.039062 211.726562 40.214844 211.503906 39.789062 C 211.417969 39.632812 211.148438 39.417969 210.90625 39.320312 C 210.34375 39.085938 208.921875 39.074219 208.835938 39.300781 M 213.964844 39.277344 C 213.382812 39.402344 213.054688 39.816406 213.054688 40.421875 C 213.054688 41.078125 213.476562 41.46875 214.257812 41.53125 C 215.089844 41.601562 215.382812 41.785156 215.382812 42.246094 C 215.382812 43.046875 214.070312 43.289062 213.359375 42.617188 C 213.121094 42.390625 213.015625 42.359375 212.894531 42.480469 C 212.773438 42.601562 212.816406 42.714844 213.089844 42.988281 C 213.386719 43.285156 213.570312 43.34375 214.328125 43.386719 C 215.164062 43.433594 215.246094 43.414062 215.644531 43.054688 C 216.53125 42.269531 216.011719 41.269531 214.550781 40.941406 C 213.679688 40.742188 213.488281 40.566406 213.710938 40.148438 C 214.023438 39.550781 214.46875 39.496094 215.175781 39.976562 C 215.730469 40.355469 215.9375 40.386719 215.878906 40.089844 C 215.777344 39.570312 214.707031 39.117188 213.964844 39.277344 M 62.164062 39.359375 C 61.710938 39.441406 61.441406 39.953125 61.535156 40.550781 C 61.605469 40.972656 61.5625 41.125 61.292969 41.441406 C 60.824219 42.003906 60.851562 42.640625 61.367188 43.074219 C 61.847656 43.480469 62.457031 43.511719 62.914062 43.152344 C 63.324219 42.828125 63.386719 42.832031 63.472656 43.164062 C 63.570312 43.542969 63.867188 43.40625 63.953125 42.945312 C 64.007812 42.671875 63.953125 42.492188 63.757812 42.292969 C 63.613281 42.140625 63.347656 41.804688 63.171875 41.546875 C 62.992188 41.285156 62.660156 40.988281 62.425781 40.886719 C 61.953125 40.679688 61.855469 40.210938 62.210938 39.855469 C 62.472656 39.59375 62.566406 39.601562 62.839844 39.90625 C 63.003906 40.085938 63.042969 40.261719 62.980469 40.550781 C 62.890625 40.964844 63.007812 41.0625 63.277344 40.792969 C 63.503906 40.566406 63.464844 39.980469 63.203125 39.679688 C 62.949219 39.386719 62.601562 39.277344 62.164062 39.359375 M 86.691406 39.554688 C 86.574219 40.097656 86.363281 42.175781 86.363281 42.789062 C 86.359375 43.847656 86.964844 43.726562 87.03125 42.65625 C 87.0625 42.191406 87.128906 42.042969 87.308594 42.007812 C 87.855469 41.902344 88.152344 42.113281 88.492188 42.828125 C 88.730469 43.335938 88.902344 43.542969 89.085938 43.542969 C 89.269531 43.542969 89.339844 43.449219 89.339844 43.226562 C 89.339844 42.855469 88.230469 40.597656 87.664062 39.816406 C 87.21875 39.199219 86.792969 39.085938 86.691406 39.554688 M 172.515625 39.605469 C 172.230469 39.96875 172.160156 40.492188 172.375 40.625 C 172.605469 40.765625 172.515625 41.226562 172.179688 41.621094 C 171.601562 42.3125 171.75 42.726562 172.769531 43.273438 C 173.191406 43.5 173.269531 43.503906 173.628906 43.328125 C 173.847656 43.222656 174.09375 42.984375 174.179688 42.800781 C 174.339844 42.445312 174.519531 42.511719 174.597656 42.957031 C 174.625 43.097656 174.75 43.234375 174.871094 43.257812 C 175.328125 43.34375 175.085938 42.789062 174.320312 41.996094 C 173.890625 41.554688 173.542969 41.148438 173.542969 41.09375 C 173.542969 41.039062 173.714844 40.804688 173.925781 40.566406 C 174.347656 40.09375 174.3125 39.84375 173.769531 39.464844 C 173.332031 39.15625 172.824219 39.214844 172.515625 39.605469 M 82.957031 39.632812 C 82.832031 39.78125 82.636719 41.683594 82.609375 43 C 82.605469 43.40625 82.625 43.425781 83.023438 43.386719 C 83.429688 43.347656 83.445312 43.324219 83.445312 42.761719 C 83.445312 42.238281 83.476562 42.175781 83.769531 42.140625 C 84.449219 42.0625 85.140625 41.71875 85.359375 41.351562 C 85.691406 40.792969 85.648438 40.023438 85.273438 39.667969 C 85 39.410156 84.851562 39.378906 84.035156 39.417969 C 83.460938 39.441406 83.042969 39.523438 82.957031 39.632812 M 136.667969 39.589844 C 136.773438 39.695312 136.902344 39.785156 136.953125 39.785156 C 137.003906 39.785156 136.96875 39.695312 136.882812 39.589844 C 136.792969 39.484375 136.664062 39.394531 136.597656 39.394531 C 136.527344 39.394531 136.5625 39.484375 136.667969 39.589844 M 140.976562 39.5625 C 140.804688 39.6875 140.761719 39.875 140.792969 40.371094 L 140.832031 41.015625 L 141.441406 41.050781 C 142.003906 41.089844 142.0625 41.0625 142.25 40.703125 C 142.503906 40.210938 142.335938 39.703125 141.863281 39.523438 C 141.421875 39.355469 141.25 39.363281 140.976562 39.5625 M 10.34375 39.679688 C 10.257812 39.765625 10.1875 40.171875 10.1875 40.585938 L 10.1875 41.339844 L 10.683594 41.339844 C 11.246094 41.339844 11.550781 41.144531 11.652344 40.714844 C 11.777344 40.191406 11.515625 39.691406 11.074219 39.605469 C 10.542969 39.496094 10.523438 39.5 10.34375 39.679688 M 26.949219 39.773438 C 26.34375 40.140625 26.125 40.535156 26.125 41.242188 C 26.125 42.050781 26.386719 42.542969 26.964844 42.816406 C 27.402344 43.027344 27.453125 43.027344 27.910156 42.804688 C 28.171875 42.671875 28.460938 42.421875 28.546875 42.246094 C 28.941406 41.457031 28.601562 40.207031 27.882812 39.769531 C 27.394531 39.472656 27.441406 39.472656 26.949219 39.773438 M 51.46875 39.609375 C 51.421875 39.65625 51.382812 40.039062 51.382812 40.453125 L 51.382812 41.207031 L 52 41.207031 C 52.339844 41.207031 52.691406 41.15625 52.785156 41.097656 C 53.050781 40.925781 53.015625 39.902344 52.734375 39.695312 C 52.492188 39.519531 51.621094 39.457031 51.46875 39.609375 M 157.796875 39.960938 C 157.648438 40.753906 157.75 41.007812 158.242188 41.058594 C 159.183594 41.148438 159.550781 40.792969 159.273438 40.0625 C 159.109375 39.625 158.945312 39.527344 158.359375 39.523438 C 157.917969 39.523438 157.871094 39.558594 157.796875 39.960938 M 172.972656 39.695312 C 172.6875 39.898438 172.734375 40.539062 173.046875 40.738281 C 173.515625 41.027344 174.046875 40.085938 173.644531 39.679688 C 173.445312 39.480469 173.257812 39.484375 172.972656 39.695312 M 209.476562 39.703125 C 209.441406 39.800781 209.429688 40.164062 209.449219 40.511719 L 209.488281 41.144531 L 210.097656 41.183594 C 210.609375 41.214844 210.726562 41.175781 210.851562 40.941406 C 211.050781 40.570312 210.902344 39.820312 210.59375 39.65625 C 210.238281 39.464844 209.558594 39.496094 209.476562 39.703125 M 71.808594 39.917969 C 71.472656 40.183594 71.207031 40.863281 71.203125 41.449219 C 71.203125 41.9375 71.597656 42.628906 71.992188 42.832031 C 72.546875 43.121094 72.871094 43.0625 73.335938 42.601562 C 74.359375 41.574219 73.847656 39.652344 72.550781 39.652344 C 72.328125 39.652344 71.992188 39.773438 71.808594 39.917969 M 105.328125 39.828125 C 105.289062 39.929688 105.273438 40.265625 105.296875 40.578125 C 105.339844 41.195312 105.308594 41.183594 106.398438 41.007812 C 107.328125 40.859375 106.945312 39.753906 105.9375 39.679688 C 105.5625 39.652344 105.378906 39.695312 105.328125 39.828125 M 153.007812 40.042969 C 152.707031 40.359375 152.628906 40.574219 152.582031 41.1875 C 152.53125 41.886719 152.558594 41.980469 152.929688 42.40625 C 153.613281 43.179688 154.390625 43.15625 154.886719 42.34375 C 155.363281 41.5625 155.148438 40.132812 154.503906 39.785156 C 154.015625 39.523438 153.40625 39.628906 153.007812 40.042969 M 162.078125 39.777344 C 162.035156 39.851562 162.042969 40.582031 162.089844 41.410156 C 162.191406 43.09375 162.230469 43.152344 163.066406 42.902344 C 163.707031 42.710938 164.085938 42.140625 164.085938 41.363281 C 164.085938 40.683594 163.804688 39.980469 163.457031 39.792969 C 163.132812 39.621094 162.183594 39.609375 162.078125 39.777344 M 195.488281 39.890625 C 195.082031 40.226562 194.917969 40.609375 194.917969 41.207031 C 194.917969 42.511719 196.121094 43.363281 196.980469 42.667969 C 197.617188 42.152344 197.582031 40.515625 196.921875 39.945312 C 196.519531 39.59375 195.871094 39.570312 195.488281 39.890625 M 47.429688 40.074219 C 46.832031 41.734375 46.828125 41.726562 47.628906 41.726562 C 47.984375 41.726562 48.273438 41.679688 48.273438 41.621094 C 48.273438 41.5625 48.152344 41.15625 48.003906 40.714844 C 47.742188 39.941406 47.554688 39.730469 47.429688 40.074219 M 83.652344 40.320312 C 83.574219 40.542969 83.507812 40.925781 83.507812 41.164062 C 83.507812 41.535156 83.554688 41.597656 83.816406 41.597656 C 83.984375 41.597656 84.273438 41.441406 84.464844 41.257812 C 85.035156 40.683594 84.835938 39.910156 84.113281 39.910156 C 83.871094 39.910156 83.761719 40.011719 83.652344 40.320312 M 87.222656 40.394531 C 87.164062 40.496094 87.097656 41.25 87.125 41.5625 C 87.144531 41.808594 87.914062 41.773438 87.914062 41.527344 C 87.914062 41.027344 87.378906 40.144531 87.222656 40.394531 M 106.050781 41.585938 L 105.339844 41.660156 L 105.296875 42.273438 C 105.261719 42.839844 105.285156 42.890625 105.601562 42.96875 C 105.792969 43.015625 106.164062 42.988281 106.4375 42.910156 C 107.023438 42.734375 107.332031 42.183594 107.09375 41.738281 C 107.015625 41.589844 106.90625 41.476562 106.855469 41.488281 C 106.804688 41.5 106.441406 41.542969 106.050781 41.585938 M 136.816406 41.597656 C 136.859375 41.667969 136.921875 41.726562 136.953125 41.726562 C 136.984375 41.726562 137.011719 41.667969 137.011719 41.597656 C 137.011719 41.527344 136.949219 41.46875 136.875 41.46875 C 136.800781 41.46875 136.773438 41.527344 136.816406 41.597656 M 172.835938 41.757812 C 172.558594 42.152344 172.582031 42.597656 172.894531 42.761719 C 173.246094 42.949219 173.671875 42.714844 173.671875 42.335938 C 173.671875 42.019531 173.339844 41.46875 173.152344 41.46875 C 173.089844 41.46875 172.949219 41.597656 172.835938 41.757812 M 61.644531 41.75 C 61.398438 41.996094 61.460938 42.359375 61.804688 42.703125 C 62.445312 43.34375 63.132812 42.566406 62.511719 41.90625 C 62.191406 41.566406 61.882812 41.511719 61.644531 41.75 M 130.664062 41.96875 C 130.484375 42.167969 130.261719 42.359375 130.171875 42.390625 C 129.890625 42.480469 130.132812 42.863281 130.5625 43.011719 C 131.210938 43.238281 131.78125 43.179688 132.167969 42.847656 C 132.589844 42.484375 132.53125 42.222656 131.929688 41.859375 C 131.359375 41.507812 131.050781 41.535156 130.664062 41.96875 M 134.859375 42.605469 C 134.992188 42.824219 135.761719 43.003906 136.183594 42.914062 C 136.511719 42.84375 136.472656 42.824219 135.910156 42.753906 C 135.554688 42.710938 135.152344 42.625 135.015625 42.566406 C 134.839844 42.492188 134.792969 42.503906 134.859375 42.605469 M 100.738281 43.324219 C 100.738281 43.714844 100.703125 44.128906 100.660156 44.242188 C 100.496094 44.671875 100.890625 44.421875 101.074219 43.980469 C 101.328125 43.382812 101.269531 42.714844 100.96875 42.65625 C 100.773438 42.621094 100.738281 42.71875 100.738281 43.324219 " fill-opacity="1" fill-rule="evenodd"/></g><g clip-path="url(#e965207882)"><g clip-path="url(#2da75cc0aa)"><path fill="#ffffff" d="M 211.621094 0 L 215.324219 0 L 215.324219 3.703125 L 211.621094 3.703125 Z M 211.621094 0 " fill-opacity="1" fill-rule="nonzero"/></g></g></svg>